0
SECTION
2
HEADER
9
$INSUNITS
70
4
0
ENDSEC
0
SECTION
2
TABLES
0
TABLE
2
LTYPE
0
LTYPE
72
65
70
64
2
CONTINUOUS
3
______
73
0
40
0
0
ENDTAB
0
TABLE
2
LAYER
0
ENDTAB
0
ENDSEC
0
SECTION
2
ENTITIES
0
LINE
8
front_outsideCutPath
10
0
20
216
11
0
21
202.125
0
LINE
8
front_outsideCutPath
10
0
20
202.125
11
3
21
202.125
0
LINE
8
front_outsideCutPath
10
3
20
202.125
11
3
21
192.375
0
LINE
8
front_outsideCutPath
10
3
20
192.375
11
0
21
192.375
0
LINE
8
front_outsideCutPath
10
0
20
192.375
11
0
21
182.625
0
LINE
8
front_outsideCutPath
10
0
20
182.625
11
3
21
182.625
0
LINE
8
front_outsideCutPath
10
3
20
182.625
11
3
21
172.875
0
LINE
8
front_outsideCutPath
10
3
20
172.875
11
0
21
172.875
0
LINE
8
front_outsideCutPath
10
0
20
172.875
11
0
21
163.125
0
LINE
8
front_outsideCutPath
10
0
20
163.125
11
3
21
163.125
0
LINE
8
front_outsideCutPath
10
3
20
163.125
11
3
21
153.375
0
LINE
8
front_outsideCutPath
10
3
20
153.375
11
0
21
153.375
0
LINE
8
front_outsideCutPath
10
0
20
153.375
11
0
21
143.625
0
LINE
8
front_outsideCutPath
10
0
20
143.625
11
3
21
143.625
0
LINE
8
front_outsideCutPath
10
3
20
143.625
11
3
21
133.875
0
LINE
8
front_outsideCutPath
10
3
20
133.875
11
0
21
133.875
0
LINE
8
front_outsideCutPath
10
0
20
133.875
11
0
21
124.125
0
LINE
8
front_outsideCutPath
10
0
20
124.125
11
3
21
124.125
0
LINE
8
front_outsideCutPath
10
3
20
124.125
11
3
21
114.375
0
LINE
8
front_outsideCutPath
10
3
20
114.375
11
0
21
114.375
0
LINE
8
front_outsideCutPath
10
0
20
114.375
11
0
21
104.625
0
LINE
8
front_outsideCutPath
10
0
20
104.625
11
3
21
104.625
0
LINE
8
front_outsideCutPath
10
3
20
104.625
11
3
21
94.875
0
LINE
8
front_outsideCutPath
10
3
20
94.875
11
0
21
94.875
0
LINE
8
front_outsideCutPath
10
0
20
94.875
11
0
21
85.125
0
LINE
8
front_outsideCutPath
10
0
20
85.125
11
3
21
85.125
0
LINE
8
front_outsideCutPath
10
3
20
85.125
11
3
21
75.375
0
LINE
8
front_outsideCutPath
10
3
20
75.375
11
0
21
75.375
0
LINE
8
front_outsideCutPath
10
0
20
75.375
11
0
21
65.625
0
LINE
8
front_outsideCutPath
10
0
20
65.625
11
3
21
65.625
0
LINE
8
front_outsideCutPath
10
3
20
65.625
11
3
21
55.875
0
LINE
8
front_outsideCutPath
10
3
20
55.875
11
0
21
55.875
0
LINE
8
front_outsideCutPath
10
0
20
55.875
11
0
21
46.125
0
LINE
8
front_outsideCutPath
10
0
20
46.125
11
3
21
46.125
0
LINE
8
front_outsideCutPath
10
3
20
46.125
11
3
21
36.375
0
LINE
8
front_outsideCutPath
10
3
20
36.375
11
0
21
36.375
0
LINE
8
front_outsideCutPath
10
0
20
36.375
11
0
21
26.625
0
LINE
8
front_outsideCutPath
10
0
20
26.625
11
3
21
26.625
0
LINE
8
front_outsideCutPath
10
3
20
26.625
11
3
21
16.875
0
LINE
8
front_outsideCutPath
10
3
20
16.875
11
0
21
16.875
0
LINE
8
front_outsideCutPath
10
0
20
16.875
11
0
21
3
0
LINE
8
front_outsideCutPath
10
0
20
3
11
9.125
21
3
0
LINE
8
front_outsideCutPath
10
9.125
20
3
11
9.125
21
6
0
LINE
8
front_outsideCutPath
10
9.125
20
6
11
18.875
21
6
0
LINE
8
front_outsideCutPath
10
18.875
20
6
11
18.875
21
3
0
LINE
8
front_outsideCutPath
10
18.875
20
3
11
28.625
21
3
0
LINE
8
front_outsideCutPath
10
28.625
20
3
11
28.625
21
6
0
LINE
8
front_outsideCutPath
10
28.625
20
6
11
38.375
21
6
0
LINE
8
front_outsideCutPath
10
38.375
20
6
11
38.375
21
3
0
LINE
8
front_outsideCutPath
10
38.375
20
3
11
48.125
21
3
0
LINE
8
front_outsideCutPath
10
48.125
20
3
11
48.125
21
6
0
LINE
8
front_outsideCutPath
10
48.125
20
6
11
57.875
21
6
0
LINE
8
front_outsideCutPath
10
57.875
20
6
11
57.875
21
3
0
LINE
8
front_outsideCutPath
10
57.875
20
3
11
67.625
21
3
0
LINE
8
front_outsideCutPath
10
67.625
20
3
11
67.625
21
6
0
LINE
8
front_outsideCutPath
10
67.625
20
6
11
77.375
21
6
0
LINE
8
front_outsideCutPath
10
77.375
20
6
11
77.375
21
3
0
LINE
8
front_outsideCutPath
10
77.375
20
3
11
87.125
21
3
0
LINE
8
front_outsideCutPath
10
87.125
20
3
11
87.125
21
6
0
LINE
8
front_outsideCutPath
10
87.125
20
6
11
96.875
21
6
0
LINE
8
front_outsideCutPath
10
96.875
20
6
11
96.875
21
3
0
LINE
8
front_outsideCutPath
10
96.875
20
3
11
106
21
3
0
LINE
8
front_outsideCutPath
10
106
20
3
11
106
21
16.875
0
LINE
8
front_outsideCutPath
10
106
20
16.875
11
103
21
16.875
0
LINE
8
front_outsideCutPath
10
103
20
16.875
11
103
21
26.625
0
LINE
8
front_outsideCutPath
10
103
20
26.625
11
106
21
26.625
0
LINE
8
front_outsideCutPath
10
106
20
26.625
11
106
21
36.375
0
LINE
8
front_outsideCutPath
10
106
20
36.375
11
103
21
36.375
0
LINE
8
front_outsideCutPath
10
103
20
36.375
11
103
21
46.125
0
LINE
8
front_outsideCutPath
10
103
20
46.125
11
106
21
46.125
0
LINE
8
front_outsideCutPath
10
106
20
46.125
11
106
21
55.875
0
LINE
8
front_outsideCutPath
10
106
20
55.875
11
103
21
55.875
0
LINE
8
front_outsideCutPath
10
103
20
55.875
11
103
21
65.625
0
LINE
8
front_outsideCutPath
10
103
20
65.625
11
106
21
65.625
0
LINE
8
front_outsideCutPath
10
106
20
65.625
11
106
21
75.375
0
LINE
8
front_outsideCutPath
10
106
20
75.375
11
103
21
75.375
0
LINE
8
front_outsideCutPath
10
103
20
75.375
11
103
21
85.125
0
LINE
8
front_outsideCutPath
10
103
20
85.125
11
106
21
85.125
0
LINE
8
front_outsideCutPath
10
106
20
85.125
11
106
21
94.875
0
LINE
8
front_outsideCutPath
10
106
20
94.875
11
103
21
94.875
0
LINE
8
front_outsideCutPath
10
103
20
94.875
11
103
21
104.625
0
LINE
8
front_outsideCutPath
10
103
20
104.625
11
106
21
104.625
0
LINE
8
front_outsideCutPath
10
106
20
104.625
11
106
21
114.375
0
LINE
8
front_outsideCutPath
10
106
20
114.375
11
103
21
114.375
0
LINE
8
front_outsideCutPath
10
103
20
114.375
11
103
21
124.125
0
LINE
8
front_outsideCutPath
10
103
20
124.125
11
106
21
124.125
0
LINE
8
front_outsideCutPath
10
106
20
124.125
11
106
21
133.875
0
LINE
8
front_outsideCutPath
10
106
20
133.875
11
103
21
133.875
0
LINE
8
front_outsideCutPath
10
103
20
133.875
11
103
21
143.625
0
LINE
8
front_outsideCutPath
10
103
20
143.625
11
106
21
143.625
0
LINE
8
front_outsideCutPath
10
106
20
143.625
11
106
21
153.375
0
LINE
8
front_outsideCutPath
10
106
20
153.375
11
103
21
153.375
0
LINE
8
front_outsideCutPath
10
103
20
153.375
11
103
21
163.125
0
LINE
8
front_outsideCutPath
10
103
20
163.125
11
106
21
163.125
0
LINE
8
front_outsideCutPath
10
106
20
163.125
11
106
21
172.875
0
LINE
8
front_outsideCutPath
10
106
20
172.875
11
103
21
172.875
0
LINE
8
front_outsideCutPath
10
103
20
172.875
11
103
21
182.625
0
LINE
8
front_outsideCutPath
10
103
20
182.625
11
106
21
182.625
0
LINE
8
front_outsideCutPath
10
106
20
182.625
11
106
21
192.375
0
LINE
8
front_outsideCutPath
10
106
20
192.375
11
103
21
192.375
0
LINE
8
front_outsideCutPath
10
103
20
192.375
11
103
21
202.125
0
LINE
8
front_outsideCutPath
10
103
20
202.125
11
106
21
202.125
0
LINE
8
front_outsideCutPath
10
106
20
202.125
11
106
21
216
0
LINE
8
front_outsideCutPath
10
106
20
216
11
0
21
216
0
LINE
8
front_labelLayer
10
35.4385742
20
112.8386033
11
35.4385742
21
111.5032518
0
LINE
8
front_labelLayer
10
35.4385742
20
111.5032518
11
32.5504883
21
111.5032518
0
LINE
8
front_labelLayer
10
32.5504883
20
111.5032518
11
32.5504883
21
101.4932908
0
LINE
8
front_labelLayer
10
32.5504883
20
101.4932908
11
30.8321289
21
101.4932908
0
LINE
8
front_labelLayer
10
30.8321289
20
101.4932908
11
30.8321289
21
111.5032518
0
LINE
8
front_labelLayer
10
30.8321289
20
111.5032518
11
28.8032226
21
111.5032518
0
LINE
8
front_labelLayer
10
28.8032226
20
111.5032518
11
28.8032226
21
112.279619
0
LINE
8
front_labelLayer
10
28.8032226
20
112.279619
11
30.8321289
21
112.9007127
0
LINE
8
front_labelLayer
10
30.8321289
20
112.9007127
11
30.8321289
21
113.532158
0
LINE
8
front_labelLayer
10
36.5979492
20
117.3518846
11
36.152832
21
115.9751268
0
LINE
8
front_labelLayer
10
32.5504883
20
113.5735643
11
32.5504883
21
112.8386033
0
LINE
8
front_labelLayer
10
32.5504883
20
112.8386033
11
35.4385742
21
112.8386033
0
ARC
8
front_labelLayer
10
37.7960374
20
113.6122188
40
6.9643687
50
167.5775947
51
180.6586733
0
ARC
8
front_labelLayer
10
34.521163
20
114.3757303
40
3.6021556
50
141.7433828
51
168.2322107
0
ARC
8
front_labelLayer
10
33.9879482
20
114.6540277
40
3.013202
50
98.2551599
51
139.6203266
0
ARC
8
front_labelLayer
10
34.4561187
20
112.4912672
40
5.2230089
50
89.6696763
51
99.9314497
0
ARC
8
front_labelLayer
10
34.4574257
20
112.1807471
40
5.5335171
50
81.5640955
51
89.7017454
0
ARC
8
front_labelLayer
10
34.0684077
20
109.4667502
40
8.275231
50
75.9739891
51
81.6564739
0
ARC
8
front_labelLayer
10
33.4008388
20
106.6978131
40
11.1234327
50
73.2963699
51
76.0946248
0
ARC
8
front_labelLayer
10
33.5689646
20
108.0410332
40
8.3442323
50
71.9613127
51
76.5918465
0
ARC
8
front_labelLayer
10
34.2163105
20
110.7871441
40
5.5228662
50
76.5183507
51
83.0217079
0
ARC
8
front_labelLayer
10
34.4418065
20
112.6005663
40
3.695483
50
83.0760806
51
89.7927192
0
ARC
8
front_labelLayer
10
34.4343833
20
113.9787196
40
2.3173989
50
89.4859164
51
103.4197157
0
ARC
8
front_labelLayer
10
34.2254538
20
114.7814101
40
1.4882323
50
102.7677395
51
144.3380332
0
ARC
8
front_labelLayer
10
34.6463617
20
114.5105949
40
1.9882553
50
145.0688775
51
162.1801821
0
ARC
8
front_labelLayer
10
36.089487
20
114.0250528
40
3.5107931
50
161.8437347
51
171.7847254
0
ARC
8
front_labelLayer
10
38.4433186
20
113.6715145
40
5.8910038
50
171.6527944
51
178.4383469
0
ARC
8
front_labelLayer
10
40.6629608
20
113.5768512
40
8.1124732
50
178.1972474
51
180.0232149
0
LINE
8
front_labelLayer
10
44.0407226
20
112.9214158
11
43.8026367
21
111.3272752
0
LINE
8
front_labelLayer
10
39.2272461
20
107.5800096
11
39.2272461
21
101.4932908
0
LINE
8
front_labelLayer
10
39.2272461
20
101.4932908
11
37.5088867
21
101.4932908
0
LINE
8
front_labelLayer
10
37.5088867
20
101.4932908
11
37.5088867
21
112.8386033
0
LINE
8
front_labelLayer
10
37.5088867
20
112.8386033
11
38.9270508
21
112.8386033
0
LINE
8
front_labelLayer
10
38.9270508
20
112.8386033
11
39.1237304
21
110.7372361
0
LINE
8
front_labelLayer
10
39.1237304
20
110.7372361
11
39.2065429
21
110.7372361
0
ARC
8
front_labelLayer
10
42.7023034
20
105.1568811
40
7.8887732
50
84.9923107
51
90.1280859
0
ARC
8
front_labelLayer
10
42.8917583
20
107.2795227
40
5.7576973
50
78.4891931
51
85.0266172
0
ARC
8
front_labelLayer
10
42.1564227
20
103.9350237
40
7.573335
50
77.4454066
51
81.6360251
0
ARC
8
front_labelLayer
10
42.486394
20
106.2094714
40
5.2750823
50
81.588434
51
87.1916831
0
ARC
8
front_labelLayer
10
42.5580517
20
107.4521474
40
4.0304022
50
87.3436087
51
89.9659177
0
ARC
8
front_labelLayer
10
42.541406
20
108.5052012
40
2.9774083
50
89.6335398
51
137.0880781
0
ARC
8
front_labelLayer
10
43.2721003
20
107.68351
40
4.0733728
50
135.6208772
51
138.8377101
0
ARC
8
front_labelLayer
10
43.1650458
20
107.7880094
40
3.9240046
50
138.9575807
51
174.542217
0
ARC
8
front_labelLayer
10
44.4430171
20
107.5880438
40
5.2157774
50
173.69075
51
180.0882565
0
ARC
8
front_labelLayer
10
44.2623085
20
107.8888428
40
5.8029398
50
139.4139165
51
150.6033046
0
ARC
8
front_labelLayer
10
43.2218479
20
108.7804106
40
4.4327385
50
124.2321468
51
139.4161095
0
ARC
8
front_labelLayer
10
42.665516
20
109.6201911
40
3.425497
50
89.6796585
51
124.4405662
0
ARC
8
front_labelLayer
10
47.0795488
20
107.1164598
40
8.876024
50
349.1761902
51
0.3862697
0
ARC
8
front_labelLayer
10
50.0678943
20
106.5207268
40
5.82902
50
330.2507028
51
349.41165
0
ARC
8
front_labelLayer
10
50.9875599
20
106.0427203
40
4.7935504
50
318.1439619
51
329.756622
0
ARC
8
front_labelLayer
10
51.153542
20
105.9097006
40
4.5811791
50
278.8959128
51
317.9979184
0
ARC
8
front_labelLayer
10
50.7258573
20
107.9587818
40
6.6725856
50
269.7502973
51
279.8033146
0
ARC
8
front_labelLayer
10
50.6564966
20
106.8042456
40
5.518133
50
253.5436912
51
270.4182463
0
ARC
8
front_labelLayer
10
50.4728056
20
106.09369
40
4.7847139
50
238.8115478
51
253.2428501
0
ARC
8
front_labelLayer
10
50.4135279
20
105.9744811
40
4.6520501
50
207.7947067
51
238.6757886
0
ARC
8
front_labelLayer
10
51.264222
20
106.4954847
40
5.6479062
50
205.6560114
51
208.4461012
0
ARC
8
front_labelLayer
10
51.9194041
20
106.7684744
40
6.3568005
50
188.9102388
51
205.3171382
0
ARC
8
front_labelLayer
10
54.1275319
20
107.1424607
40
8.5962507
50
179.7744623
51
189.0932852
0
ARC
8
front_labelLayer
10
54.4532707
20
107.2367298
40
8.9221277
50
169.244298
51
180.3880773
0
ARC
8
front_labelLayer
10
51.4233826
20
107.8356289
40
5.8337466
50
150.7111431
51
169.469547
0
ARC
8
front_labelLayer
10
50.4561683
20
108.3323261
40
4.7473543
50
138.175969
51
150.2287157
0
ARC
8
front_labelLayer
10
50.2952607
20
108.4558028
40
4.5451325
50
99.1759399
51
137.9832728
0
ARC
8
front_labelLayer
10
50.738096
20
106.3717734
40
6.673934
50
89.7326427
51
100.0759894
0
ARC
8
front_labelLayer
10
50.826603
20
107.2717995
40
5.7741201
50
73.5222709
51
90.569232
0
ARC
8
front_labelLayer
10
51.1652199
20
108.5020846
40
4.4983819
50
41.1445713
51
73.2133797
0
ARC
8
front_labelLayer
10
50.5188254
20
107.9465178
40
5.3506963
50
13.5014397
51
41.070343
0
ARC
8
front_labelLayer
10
48.0214771
20
107.2929966
40
7.9317784
50
1.1277289
51
13.8799945
0
ARC
8
front_labelLayer
10
45.8707007
20
107.1777244
40
10.0846706
50
359.9918998
51
1.5420244
0
ARC
8
front_labelLayer
10
56.0134333
20
107.1316423
40
8.7017315
50
179.7059627
51
187.9160844
0
ARC
8
front_labelLayer
10
52.8219216
20
106.6731845
40
5.4775116
50
187.7639327
51
200.0976751
0
ARC
8
front_labelLayer
10
51.0637119
20
106.0289748
40
3.6049981
50
200.0845826
51
216.9131652
0
ARC
8
front_labelLayer
10
50.4216812
20
105.5705343
40
2.816388
50
217.3009513
51
261.7099144
0
ARC
8
front_labelLayer
10
50.719735
20
106.9928062
40
4.2677194
50
260.5032976
51
270.2476797
0
ARC
8
front_labelLayer
10
50.776624
20
106.7162519
40
3.9913103
50
269.448174
51
284.7255692
0
ARC
8
front_labelLayer
10
51.0925926
20
105.5444256
40
2.7776682
50
284.5662358
51
322.6333784
0
ARC
8
front_labelLayer
10
50.3538447
20
106.0781381
40
3.6887979
50
323.0089212
51
342.6390545
0
ARC
8
front_labelLayer
10
48.2408521
20
106.7687243
40
5.9116644
50
342.3615782
51
353.7537521
0
ARC
8
front_labelLayer
10
45.1234742
20
107.1444807
40
9.051484
50
353.5363199
51
0.2014075
0
ARC
8
front_labelLayer
10
45.6011134
20
107.220058
40
8.5739006
50
359.7075732
51
7.897265
0
ARC
8
front_labelLayer
10
48.7411316
20
107.6702085
40
5.4018322
50
7.7439828
51
20.0690265
0
ARC
8
front_labelLayer
10
50.4908596
20
108.3122948
40
3.5380157
50
20.0256886
51
37.4350646
0
ARC
8
front_labelLayer
10
51.0714007
20
108.7242389
40
2.8267536
50
37.9577644
51
80.4006203
0
ARC
8
front_labelLayer
10
50.7414958
20
107.2522316
40
4.333899
50
79.3453568
51
90.3174937
0
ARC
8
front_labelLayer
10
50.6804085
20
107.4967376
40
4.0894947
50
89.4805971
51
103.8805092
0
ARC
8
front_labelLayer
10
50.3367855
20
108.8052522
40
2.7368276
50
103.4685272
51
142.3118829
0
ARC
8
front_labelLayer
10
51.0048173
20
108.3354456
40
3.5528859
50
142.9025809
51
162.3749612
0
ARC
8
front_labelLayer
10
53.1097703
20
107.6339739
40
5.7715095
50
162.0653023
51
173.1674989
0
ARC
8
front_labelLayer
10
56.391996
20
107.2153442
40
9.0802636
50
173.0086184
51
180.2463753
0
LINE
8
front_labelLayer
10
68.449707
20
101.4932908
11
66.7313476
21
101.4932908
0
LINE
8
front_labelLayer
10
66.7313476
20
101.4932908
11
66.7313476
21
108.8325486
0
LINE
8
front_labelLayer
10
60.6860351
20
107.4454393
11
60.6860351
21
101.4932908
0
LINE
8
front_labelLayer
10
60.6860351
20
101.4932908
11
58.9676758
21
101.4932908
0
LINE
8
front_labelLayer
10
58.9676758
20
101.4932908
11
58.9676758
21
112.8386033
0
LINE
8
front_labelLayer
10
58.9676758
20
112.8386033
11
60.3651367
21
112.8386033
0
LINE
8
front_labelLayer
10
60.3651367
20
112.8386033
11
60.6446289
21
111.285869
0
LINE
8
front_labelLayer
10
60.6446289
20
111.285869
11
60.7274414
21
111.285869
0
LINE
8
front_labelLayer
10
68.449707
20
108.894658
11
68.449707
21
101.4932908
0
ARC
8
front_labelLayer
10
61.8740682
20
108.8604064
40
4.8573593
50
359.6713972
51
8.687729
0
ARC
8
front_labelLayer
10
63.6743379
20
109.1459176
40
3.0346367
50
8.4931417
51
22.6579956
0
ARC
8
front_labelLayer
10
64.5890031
20
109.5260249
40
2.0441367
50
22.702428
51
42.3419536
0
ARC
8
front_labelLayer
10
64.6918155
20
109.5722729
40
1.9373109
50
43.3790849
51
71.5385978
0
ARC
8
front_labelLayer
10
64.3073484
20
108.4979707
40
3.0781714
50
71.0828102
51
84.3691257
0
ARC
8
front_labelLayer
10
64.1347645
20
107.0305875
40
4.5554925
50
84.0198181
51
90.1510618
0
ARC
8
front_labelLayer
10
64.0858404
20
106.3855036
40
5.2006917
50
89.593322
51
100.3717835
0
ARC
8
front_labelLayer
10
63.7183133
20
108.313806
40
3.2377616
50
100.1176614
51
118.1602439
0
ARC
8
front_labelLayer
10
63.3479328
20
109.040091
40
2.4227033
50
118.5439219
51
139.1926998
0
ARC
8
front_labelLayer
10
63.6708892
20
108.823383
40
2.8091689
50
140.1519391
51
160.3146156
0
ARC
8
front_labelLayer
10
65.621049
20
108.0929373
40
4.891506
50
159.9534379
51
171.3801149
0
ARC
8
front_labelLayer
10
68.8066635
20
107.5808596
40
8.1179379
50
171.1765752
51
178.3217753
0
ARC
8
front_labelLayer
10
71.6945596
20
107.4499787
40
11.0085255
50
178.0810647
51
180.0236263
0
ARC
8
front_labelLayer
10
63.6669581
20
109.424175
40
3.4794631
50
116.9442969
51
147.6525558
0
ARC
8
front_labelLayer
10
64.029074
20
108.8185277
40
4.1837289
50
115.8071535
51
117.6067888
0
ARC
8
front_labelLayer
10
64.2142764
20
108.3867163
40
4.6531486
50
94.3226759
51
115.5454301
0
ARC
8
front_labelLayer
10
64.3256515
20
107.4190705
40
5.6265657
50
89.9579064
51
94.7108936
0
ARC
8
front_labelLayer
10
64.3716827
20
106.2614054
40
6.7843585
50
80.5585227
51
90.3538385
0
ARC
8
front_labelLayer
10
64.7956638
20
108.7172514
40
4.2922579
50
65.1094222
51
80.7638321
0
ARC
8
front_labelLayer
10
65.291278
20
109.8150213
40
3.0878839
50
46.5584517
51
64.8782529
0
ARC
8
front_labelLayer
10
65.3309417
20
109.9293706
40
2.9780011
50
19.3848891
51
45.5997068
0
ARC
8
front_labelLayer
10
63.6080803
20
109.2829233
40
4.8179072
50
6.9633525
51
19.8363403
0
ARC
8
front_labelLayer
10
60.9508718
20
108.9256572
40
7.4988993
50
359.7631487
51
7.2115619
0
LINE
8
front_labelLayer
10
77.1967773
20
102.9114549
11
77.1967773
21
101.5968065
0
LINE
8
front_labelLayer
10
72.1038086
20
104.754033
11
72.1038086
21
111.5032518
0
LINE
8
front_labelLayer
10
72.1038086
20
111.5032518
11
70.4786133
21
111.5032518
0
LINE
8
front_labelLayer
10
70.4786133
20
111.5032518
11
70.4786133
21
112.3313768
0
LINE
8
front_labelLayer
10
70.4786133
20
112.3313768
11
72.1038086
21
113.0456346
0
LINE
8
front_labelLayer
10
72.1038086
20
113.0456346
11
72.8284179
21
115.4679002
0
LINE
8
front_labelLayer
10
72.8284179
20
115.4679002
11
73.8221679
21
115.4679002
0
LINE
8
front_labelLayer
10
73.8221679
20
115.4679002
11
73.8221679
21
112.8386033
0
LINE
8
front_labelLayer
10
73.8221679
20
112.8386033
11
77.1139648
21
112.8386033
0
LINE
8
front_labelLayer
10
77.1139648
20
112.8386033
11
77.1139648
21
111.5032518
0
LINE
8
front_labelLayer
10
77.1139648
20
111.5032518
11
73.8221679
21
111.5032518
0
LINE
8
front_labelLayer
10
73.8221679
20
111.5032518
11
73.8221679
21
104.826494
0
ARC
8
front_labelLayer
10
75.6558259
20
108.3477576
40
5.6433463
50
269.8803702
51
278.3028194
0
ARC
8
front_labelLayer
10
75.7093907
20
107.9098314
40
5.2022852
50
278.4155468
51
279.0080106
0
ARC
8
front_labelLayer
10
75.0762341
20
111.9545683
40
9.2962745
50
278.9590293
51
280.5103666
0
ARC
8
front_labelLayer
10
75.6796915
20
108.7165363
40
6.0024923
50
280.4848614
51
282.6267259
0
ARC
8
front_labelLayer
10
76.2090729
20
106.3646239
40
3.59174
50
282.5875811
51
285.5795157
0
ARC
8
front_labelLayer
10
76.4745259
20
105.3884297
40
2.5801263
50
285.7234572
51
286.2559513
0
ARC
8
front_labelLayer
10
76.4743369
20
103.124808
40
1.6901801
50
287.988795
51
295.3048252
0
ARC
8
front_labelLayer
10
76.0666558
20
104.3582372
40
2.9892279
50
283.3069921
51
288.1197325
0
ARC
8
front_labelLayer
10
75.6360519
20
106.154419
40
4.8362984
50
280.0069415
51
283.3735486
0
ARC
8
front_labelLayer
10
75.3475869
20
107.7199635
40
6.428163
50
279.1864465
51
280.1142198
0
ARC
8
front_labelLayer
10
75.1710244
20
108.7241815
40
7.4477017
50
275.526004
51
279.2939714
0
ARC
8
front_labelLayer
10
75.3703205
20
106.6425077
40
5.356511
50
270.8932624
51
275.5483613
0
ARC
8
front_labelLayer
10
75.3953634
20
105.6910192
40
4.4047596
50
270.0031489
51
270.7605004
0
ARC
8
front_labelLayer
10
75.3262638
20
105.7738275
40
4.4881036
50
253.7848034
51
270.8852607
0
ARC
8
front_labelLayer
10
74.7945438
20
103.9604568
40
2.5983921
50
190.3817677
51
253.8772358
0
ARC
8
front_labelLayer
10
77.5047069
20
104.6932386
40
5.4012405
50
179.3550861
51
192.8477749
0
ARC
8
front_labelLayer
10
77.2823143
20
104.8048539
40
3.460214
50
179.6416718
51
189.7505817
0
ARC
8
front_labelLayer
10
76.060789
20
104.5869804
40
2.2194495
50
189.5479513
51
205.7873446
0
ARC
8
front_labelLayer
10
75.5587914
20
104.3554938
40
1.6667688
50
206.1294219
51
221.4084053
0
ARC
8
front_labelLayer
10
75.5025069
20
104.3127866
40
1.5963156
50
221.5949296
51
262.3505162
0
ARC
8
front_labelLayer
10
75.6363728
20
105.0011599
40
2.2967491
50
261.3265699
51
270.1913437
0
LINE
8
left_outsideCutPath
10
112
20
216
11
112
21
202.125
0
LINE
8
left_outsideCutPath
10
112
20
202.125
11
109
21
202.125
0
LINE
8
left_outsideCutPath
10
109
20
202.125
11
109
21
192.375
0
LINE
8
left_outsideCutPath
10
109
20
192.375
11
112
21
192.375
0
LINE
8
left_outsideCutPath
10
112
20
192.375
11
112
21
182.625
0
LINE
8
left_outsideCutPath
10
112
20
182.625
11
109
21
182.625
0
LINE
8
left_outsideCutPath
10
109
20
182.625
11
109
21
172.875
0
LINE
8
left_outsideCutPath
10
109
20
172.875
11
112
21
172.875
0
LINE
8
left_outsideCutPath
10
112
20
172.875
11
112
21
163.125
0
LINE
8
left_outsideCutPath
10
112
20
163.125
11
109
21
163.125
0
LINE
8
left_outsideCutPath
10
109
20
163.125
11
109
21
153.375
0
LINE
8
left_outsideCutPath
10
109
20
153.375
11
112
21
153.375
0
LINE
8
left_outsideCutPath
10
112
20
153.375
11
112
21
143.625
0
LINE
8
left_outsideCutPath
10
112
20
143.625
11
109
21
143.625
0
LINE
8
left_outsideCutPath
10
109
20
143.625
11
109
21
133.875
0
LINE
8
left_outsideCutPath
10
109
20
133.875
11
112
21
133.875
0
LINE
8
left_outsideCutPath
10
112
20
133.875
11
112
21
124.125
0
LINE
8
left_outsideCutPath
10
112
20
124.125
11
109
21
124.125
0
LINE
8
left_outsideCutPath
10
109
20
124.125
11
109
21
114.375
0
LINE
8
left_outsideCutPath
10
109
20
114.375
11
112
21
114.375
0
LINE
8
left_outsideCutPath
10
112
20
114.375
11
112
21
104.625
0
LINE
8
left_outsideCutPath
10
112
20
104.625
11
109
21
104.625
0
LINE
8
left_outsideCutPath
10
109
20
104.625
11
109
21
94.875
0
LINE
8
left_outsideCutPath
10
109
20
94.875
11
112
21
94.875
0
LINE
8
left_outsideCutPath
10
112
20
94.875
11
112
21
85.125
0
LINE
8
left_outsideCutPath
10
112
20
85.125
11
109
21
85.125
0
LINE
8
left_outsideCutPath
10
109
20
85.125
11
109
21
75.375
0
LINE
8
left_outsideCutPath
10
109
20
75.375
11
112
21
75.375
0
LINE
8
left_outsideCutPath
10
112
20
75.375
11
112
21
65.625
0
LINE
8
left_outsideCutPath
10
112
20
65.625
11
109
21
65.625
0
LINE
8
left_outsideCutPath
10
109
20
65.625
11
109
21
55.875
0
LINE
8
left_outsideCutPath
10
109
20
55.875
11
112
21
55.875
0
LINE
8
left_outsideCutPath
10
112
20
55.875
11
112
21
46.125
0
LINE
8
left_outsideCutPath
10
112
20
46.125
11
109
21
46.125
0
LINE
8
left_outsideCutPath
10
109
20
46.125
11
109
21
36.375
0
LINE
8
left_outsideCutPath
10
109
20
36.375
11
112
21
36.375
0
LINE
8
left_outsideCutPath
10
112
20
36.375
11
112
21
26.625
0
LINE
8
left_outsideCutPath
10
112
20
26.625
11
109
21
26.625
0
LINE
8
left_outsideCutPath
10
109
20
26.625
11
109
21
16.875
0
LINE
8
left_outsideCutPath
10
109
20
16.875
11
112
21
16.875
0
LINE
8
left_outsideCutPath
10
112
20
16.875
11
112
21
3
0
LINE
8
left_outsideCutPath
10
112
20
3
11
117.375
21
3
0
LINE
8
left_outsideCutPath
10
117.375
20
3
11
117.375
21
6
0
LINE
8
left_outsideCutPath
10
117.375
20
6
11
127.125
21
6
0
LINE
8
left_outsideCutPath
10
127.125
20
6
11
127.125
21
3
0
LINE
8
left_outsideCutPath
10
127.125
20
3
11
136.875
21
3
0
LINE
8
left_outsideCutPath
10
136.875
20
3
11
136.875
21
6
0
LINE
8
left_outsideCutPath
10
136.875
20
6
11
146.625
21
6
0
LINE
8
left_outsideCutPath
10
146.625
20
6
11
146.625
21
3
0
LINE
8
left_outsideCutPath
10
146.625
20
3
11
152
21
3
0
LINE
8
left_outsideCutPath
10
152
20
3
11
152
21
16.875
0
LINE
8
left_outsideCutPath
10
152
20
16.875
11
155
21
16.875
0
LINE
8
left_outsideCutPath
10
155
20
16.875
11
155
21
26.625
0
LINE
8
left_outsideCutPath
10
155
20
26.625
11
152
21
26.625
0
LINE
8
left_outsideCutPath
10
152
20
26.625
11
152
21
36.375
0
LINE
8
left_outsideCutPath
10
152
20
36.375
11
155
21
36.375
0
LINE
8
left_outsideCutPath
10
155
20
36.375
11
155
21
46.125
0
LINE
8
left_outsideCutPath
10
155
20
46.125
11
152
21
46.125
0
LINE
8
left_outsideCutPath
10
152
20
46.125
11
152
21
55.875
0
LINE
8
left_outsideCutPath
10
152
20
55.875
11
155
21
55.875
0
LINE
8
left_outsideCutPath
10
155
20
55.875
11
155
21
65.625
0
LINE
8
left_outsideCutPath
10
155
20
65.625
11
152
21
65.625
0
LINE
8
left_outsideCutPath
10
152
20
65.625
11
152
21
75.375
0
LINE
8
left_outsideCutPath
10
152
20
75.375
11
155
21
75.375
0
LINE
8
left_outsideCutPath
10
155
20
75.375
11
155
21
85.125
0
LINE
8
left_outsideCutPath
10
155
20
85.125
11
152
21
85.125
0
LINE
8
left_outsideCutPath
10
152
20
85.125
11
152
21
94.875
0
LINE
8
left_outsideCutPath
10
152
20
94.875
11
155
21
94.875
0
LINE
8
left_outsideCutPath
10
155
20
94.875
11
155
21
104.625
0
LINE
8
left_outsideCutPath
10
155
20
104.625
11
152
21
104.625
0
LINE
8
left_outsideCutPath
10
152
20
104.625
11
152
21
114.375
0
LINE
8
left_outsideCutPath
10
152
20
114.375
11
155
21
114.375
0
LINE
8
left_outsideCutPath
10
155
20
114.375
11
155
21
124.125
0
LINE
8
left_outsideCutPath
10
155
20
124.125
11
152
21
124.125
0
LINE
8
left_outsideCutPath
10
152
20
124.125
11
152
21
133.875
0
LINE
8
left_outsideCutPath
10
152
20
133.875
11
155
21
133.875
0
LINE
8
left_outsideCutPath
10
155
20
133.875
11
155
21
143.625
0
LINE
8
left_outsideCutPath
10
155
20
143.625
11
152
21
143.625
0
LINE
8
left_outsideCutPath
10
152
20
143.625
11
152
21
153.375
0
LINE
8
left_outsideCutPath
10
152
20
153.375
11
155
21
153.375
0
LINE
8
left_outsideCutPath
10
155
20
153.375
11
155
21
163.125
0
LINE
8
left_outsideCutPath
10
155
20
163.125
11
152
21
163.125
0
LINE
8
left_outsideCutPath
10
152
20
163.125
11
152
21
172.875
0
LINE
8
left_outsideCutPath
10
152
20
172.875
11
155
21
172.875
0
LINE
8
left_outsideCutPath
10
155
20
172.875
11
155
21
182.625
0
LINE
8
left_outsideCutPath
10
155
20
182.625
11
152
21
182.625
0
LINE
8
left_outsideCutPath
10
152
20
182.625
11
152
21
192.375
0
LINE
8
left_outsideCutPath
10
152
20
192.375
11
155
21
192.375
0
LINE
8
left_outsideCutPath
10
155
20
192.375
11
155
21
202.125
0
LINE
8
left_outsideCutPath
10
155
20
202.125
11
152
21
202.125
0
LINE
8
left_outsideCutPath
10
152
20
202.125
11
152
21
216
0
LINE
8
left_outsideCutPath
10
152
20
216
11
112
21
216
0
LINE
8
left_labelLayer
10
126.3106445
20
113.0152342
11
126.3106445
21
106.0253905
0
LINE
8
left_labelLayer
10
126.3106445
20
106.0253905
11
125.5649414
21
106.0253905
0
LINE
8
left_labelLayer
10
125.5649414
20
106.0253905
11
125.5649414
21
113.0152342
0
LINE
8
left_labelLayer
10
125.5649414
20
113.0152342
11
126.3106445
21
113.0152342
0
LINE
8
left_labelLayer
10
131.7821289
20
108.8240233
11
131.7821289
21
108.3523436
0
LINE
8
left_labelLayer
10
131.7821289
20
108.3523436
11
128.3905273
21
108.3523436
0
LINE
8
left_labelLayer
10
131.5709961
20
106.9193358
11
131.5709961
21
106.254492
0
LINE
8
left_labelLayer
10
128.4084961
20
108.9587889
11
130.9825195
21
108.9587889
0
ARC
8
left_labelLayer
10
129.9472578
20
108.833211
40
2.8977681
50
256.008795
51
270.4848148
0
ARC
8
left_labelLayer
10
129.7362438
20
108.0140103
40
2.0518641
50
223.5465958
51
256.1956968
0
ARC
8
left_labelLayer
10
129.8526494
20
108.0986147
40
2.1946052
50
194.0877225
51
223.0538241
0
ARC
8
left_labelLayer
10
130.9192562
20
108.3902921
40
3.3002115
50
181.3574522
51
194.4919858
0
ARC
8
left_labelLayer
10
131.8775744
20
108.4458468
40
4.2597035
50
179.9887994
51
181.7991316
0
ARC
8
left_labelLayer
10
131.5334649
20
108.4729451
40
3.9156819
50
168.9539461
51
180.3843307
0
ARC
8
left_labelLayer
10
130.254612
20
108.7333405
40
2.6106517
50
149.4070967
51
169.1853903
0
ARC
8
left_labelLayer
10
129.8983161
20
108.921591
40
2.2082273
50
140.1056485
51
148.9067279
0
ARC
8
left_labelLayer
10
129.679405
20
109.1234139
40
1.9108829
50
92.4762679
51
140.5386322
0
ARC
8
left_labelLayer
10
129.7769485
20
108.4025539
40
2.6361183
50
89.9638165
51
93.9176021
0
ARC
8
left_labelLayer
10
129.8002227
20
108.7669021
40
2.2718724
50
74.2125778
51
90.5449907
0
ARC
8
left_labelLayer
10
129.9425177
20
109.2911767
40
1.7286702
50
41.2064672
51
74.0232708
0
ARC
8
left_labelLayer
10
129.6730386
20
109.0579628
40
2.0850466
50
11.5994307
51
41.1495926
0
ARC
8
left_labelLayer
10
128.747121
20
108.8444281
40
3.0350767
50
359.6147975
51
12.0336482
0
ARC
8
left_labelLayer
10
131.3829209
20
108.412137
40
2.9929909
50
181.1447201
51
190.8006775
0
ARC
8
left_labelLayer
10
130.3270154
20
108.2038844
40
1.9167773
50
190.6005757
51
206.0275464
0
ARC
8
left_labelLayer
10
129.8598601
20
107.9830344
40
1.4001051
50
206.2950677
51
222.5557779
0
ARC
8
left_labelLayer
10
129.8184608
20
107.9613568
40
1.3550023
50
223.0644917
51
258.1401505
0
ARC
8
left_labelLayer
10
129.9832533
20
108.6399059
40
2.0530504
50
257.5311834
51
270.4319354
0
ARC
8
left_labelLayer
10
129.9850921
20
110.5253611
40
3.9384708
50
270.198408
51
292.2090401
0
ARC
8
left_labelLayer
10
129.796184
20
111.0679903
40
4.5123489
50
291.8253987
51
293.1614451
0
ARC
8
left_labelLayer
10
129.7868951
20
110.360355
40
4.4767317
50
287.9023211
51
293.4861612
0
ARC
8
left_labelLayer
10
130.1116494
20
109.358383
40
3.4234455
50
281.993552
51
287.8851008
0
ARC
8
left_labelLayer
10
130.1903512
20
109.0755212
40
3.130457
50
275.9054394
51
281.6603541
0
ARC
8
left_labelLayer
10
130.0327947
20
110.5461506
40
4.6094956
50
271.911983
51
275.9727073
0
ARC
8
left_labelLayer
10
129.9752904
20
112.0106847
40
6.075139
50
269.9668679
51
271.9931792
0
ARC
8
left_labelLayer
10
129.7553186
20
108.9443783
40
1.469949
50
89.4422036
51
106.208995
0
ARC
8
left_labelLayer
10
129.666886
20
109.2668162
40
1.1356543
50
106.465719
51
137.9176464
0
ARC
8
left_labelLayer
10
129.9204302
20
109.044162
40
1.4730602
50
138.099478
51
160.586604
0
ARC
8
left_labelLayer
10
130.5721689
20
108.8044001
40
2.1674574
50
160.3353623
51
172.5314943
0
ARC
8
left_labelLayer
10
131.213904
20
108.7015797
40
2.817174
50
172.1545345
51
174.761576
0
ARC
8
left_labelLayer
10
128.4414724
20
108.9732252
40
2.5410882
50
359.6744933
51
8.9224397
0
ARC
8
left_labelLayer
10
129.3494565
20
109.121166
40
1.6211548
50
8.7342484
51
23.2771893
0
ARC
8
left_labelLayer
10
129.7805196
20
109.3021152
40
1.1536785
50
23.4821431
51
39.7072315
0
ARC
8
left_labelLayer
10
129.8864011
20
109.3813495
40
1.0216239
50
40.0822916
51
80.6243281
0
ARC
8
left_labelLayer
10
129.7774117
20
108.8817419
40
1.5325356
50
79.6468572
51
90.2909692
0
LINE
8
left_labelLayer
10
135.2725586
20
110.948828
11
135.2725586
21
110.3693358
0
LINE
8
left_labelLayer
10
135.2725586
20
110.3693358
11
134.0192383
21
110.3693358
0
LINE
8
left_labelLayer
10
134.0192383
20
110.3693358
11
134.0192383
21
106.0253905
0
LINE
8
left_labelLayer
10
134.0192383
20
106.0253905
11
133.2735352
21
106.0253905
0
LINE
8
left_labelLayer
10
133.2735352
20
106.0253905
11
133.2735352
21
110.3693358
0
LINE
8
left_labelLayer
10
133.2735352
20
110.3693358
11
132.3930664
21
110.3693358
0
LINE
8
left_labelLayer
10
132.3930664
20
110.3693358
11
132.3930664
21
110.7062498
0
LINE
8
left_labelLayer
10
132.3930664
20
110.7062498
11
133.2735352
21
110.9757811
0
LINE
8
left_labelLayer
10
133.2735352
20
110.9757811
11
133.2735352
21
111.2498045
0
LINE
8
left_labelLayer
10
135.7756836
20
112.9074217
11
135.5825195
21
112.3099608
0
LINE
8
left_labelLayer
10
134.0192383
20
111.2677733
11
134.0192383
21
110.948828
0
LINE
8
left_labelLayer
10
134.0192383
20
110.948828
11
135.2725586
21
110.948828
0
ARC
8
left_labelLayer
10
136.2956043
20
111.2845486
40
3.0222689
50
167.5775912
51
180.6586889
0
ARC
8
left_labelLayer
10
134.874437
20
111.6158825
40
1.5631999
50
141.7433722
51
168.232193
0
ARC
8
left_labelLayer
10
134.6430412
20
111.7366545
40
1.3076151
50
98.2551456
51
139.6203415
0
ARC
8
left_labelLayer
10
134.8462095
20
110.7980897
40
2.2665961
50
89.6696644
51
99.9314042
0
ARC
8
left_labelLayer
10
134.8467757
20
110.6633312
40
2.4013496
50
81.5641017
51
89.701711
0
ARC
8
left_labelLayer
10
134.6779495
20
109.4855321
40
3.5911777
50
75.9740071
51
81.656429
0
ARC
8
left_labelLayer
10
134.3881955
20
108.2837328
40
4.8273826
50
73.2964199
51
76.0945399
0
ARC
8
left_labelLayer
10
134.4612068
20
108.8668205
40
3.6211265
50
71.9613471
51
76.5918238
0
ARC
8
left_labelLayer
10
134.7421376
20
110.0585511
40
2.396737
50
76.5183579
51
83.0216568
0
ARC
8
left_labelLayer
10
134.84
20
110.8455268
40
1.6037021
50
83.0761245
51
89.7927548
0
ARC
8
left_labelLayer
10
134.8367784
20
111.4435924
40
1.0056667
50
89.4859634
51
103.4197198
0
ARC
8
left_labelLayer
10
134.7461099
20
111.7919331
40
0.6458363
50
102.767729
51
144.3380463
0
ARC
8
left_labelLayer
10
134.9287697
20
111.6744078
40
0.8628297
50
145.0688527
51
162.1801207
0
ARC
8
left_labelLayer
10
135.5550381
20
111.4637012
40
1.5235595
50
161.843791
51
171.78473
0
ARC
8
left_labelLayer
10
136.5765301
20
111.3102778
40
2.5564992
50
171.6528313
51
178.4383151
0
ARC
8
left_labelLayer
10
137.5402716
20
111.269191
40
3.5210336
50
178.1973754
51
180.0230698
0
LINE
8
left_labelLayer
10
138.4350586
20
106.6408201
11
138.4350586
21
106.0703123
0
LINE
8
left_labelLayer
10
136.2249023
20
107.4404295
11
136.2249023
21
110.3693358
0
LINE
8
left_labelLayer
10
136.2249023
20
110.3693358
11
135.5196289
21
110.3693358
0
LINE
8
left_labelLayer
10
135.5196289
20
110.3693358
11
135.5196289
21
110.7287108
0
LINE
8
left_labelLayer
10
135.5196289
20
110.7287108
11
136.2249023
21
111.0386717
0
LINE
8
left_labelLayer
10
136.2249023
20
111.0386717
11
136.5393555
21
112.0898436
0
LINE
8
left_labelLayer
10
136.5393555
20
112.0898436
11
136.9706055
21
112.0898436
0
LINE
8
left_labelLayer
10
136.9706055
20
112.0898436
11
136.9706055
21
110.948828
0
LINE
8
left_labelLayer
10
136.9706055
20
110.948828
11
138.3991211
21
110.948828
0
LINE
8
left_labelLayer
10
138.3991211
20
110.948828
11
138.3991211
21
110.3693358
0
LINE
8
left_labelLayer
10
138.3991211
20
110.3693358
11
136.9706055
21
110.3693358
0
LINE
8
left_labelLayer
10
136.9706055
20
110.3693358
11
136.9706055
21
107.4718748
0
ARC
8
left_labelLayer
10
137.7663458
20
108.999942
40
2.448971
50
269.8803227
51
278.3028695
0
ARC
8
left_labelLayer
10
137.7895529
20
108.8101975
40
2.2578683
50
278.4154455
51
279.0078376
0
ARC
8
left_labelLayer
10
137.5148265
20
110.565178
40
4.0342198
50
278.9590044
51
280.5103465
0
ARC
8
left_labelLayer
10
137.7767286
20
109.1598769
40
2.6047227
50
280.4847734
51
282.6267469
0
ARC
8
left_labelLayer
10
138.0064567
20
108.1392681
40
1.5585796
50
282.5874781
51
285.579605
0
ARC
8
left_labelLayer
10
138.1199046
20
107.7216849
40
1.1258732
50
285.7258428
51
286.2554066
0
ARC
8
left_labelLayer
10
138.1215438
20
106.7334124
40
0.7334802
50
287.9888897
51
295.3048619
0
ARC
8
left_labelLayer
10
137.9446323
20
107.2686604
40
1.2972027
50
283.3069143
51
288.1196895
0
ARC
8
left_labelLayer
10
137.7577371
20
108.0482552
40
2.0988849
50
280.0071019
51
283.3735263
0
ARC
8
left_labelLayer
10
137.6325357
20
108.7278263
40
2.7898782
50
279.1863719
51
280.1140461
0
ARC
8
left_labelLayer
10
137.5559553
20
109.1633655
40
3.2320628
50
275.5259854
51
279.2939044
0
ARC
8
left_labelLayer
10
137.6424412
20
108.2600349
40
2.3246023
50
270.8933311
51
275.5482723
0
ARC
8
left_labelLayer
10
137.6533282
20
107.8467754
40
1.9112285
50
270.0026926
51
270.7601514
0
ARC
8
left_labelLayer
10
137.6233266
20
107.8829841
40
1.9476699
50
253.7848146
51
270.8852518
0
ARC
8
left_labelLayer
10
137.3925798
20
107.0960473
40
1.127604
50
190.3817633
51
253.8772374
0
ARC
8
left_labelLayer
10
138.5686917
20
107.4140474
40
2.3439379
50
179.3550947
51
192.8477642
0
ARC
8
left_labelLayer
10
138.4721897
20
107.4624844
40
1.5016136
50
179.6416957
51
189.7505298
0
ARC
8
left_labelLayer
10
137.9420819
20
107.3679348
40
0.9631567
50
189.5479463
51
205.7873502
0
ARC
8
left_labelLayer
10
137.7242286
20
107.2674744
40
0.7233076
50
206.1293297
51
221.4084661
0
ARC
8
left_labelLayer
10
137.6998093
20
107.2489453
40
0.6927409
50
221.594928
51
262.3505058
0
ARC
8
left_labelLayer
10
137.7579024
20
107.5476813
40
0.9967104
50
261.3266103
51
270.191313
0
LINE
8
back_outsideCutPath
10
0
20
432
11
0
21
418.125
0
LINE
8
back_outsideCutPath
10
0
20
418.125
11
3
21
418.125
0
LINE
8
back_outsideCutPath
10
3
20
418.125
11
3
21
408.375
0
LINE
8
back_outsideCutPath
10
3
20
408.375
11
0
21
408.375
0
LINE
8
back_outsideCutPath
10
0
20
408.375
11
0
21
398.625
0
LINE
8
back_outsideCutPath
10
0
20
398.625
11
3
21
398.625
0
LINE
8
back_outsideCutPath
10
3
20
398.625
11
3
21
388.875
0
LINE
8
back_outsideCutPath
10
3
20
388.875
11
0
21
388.875
0
LINE
8
back_outsideCutPath
10
0
20
388.875
11
0
21
379.125
0
LINE
8
back_outsideCutPath
10
0
20
379.125
11
3
21
379.125
0
LINE
8
back_outsideCutPath
10
3
20
379.125
11
3
21
369.375
0
LINE
8
back_outsideCutPath
10
3
20
369.375
11
0
21
369.375
0
LINE
8
back_outsideCutPath
10
0
20
369.375
11
0
21
359.625
0
LINE
8
back_outsideCutPath
10
0
20
359.625
11
3
21
359.625
0
LINE
8
back_outsideCutPath
10
3
20
359.625
11
3
21
349.875
0
LINE
8
back_outsideCutPath
10
3
20
349.875
11
0
21
349.875
0
LINE
8
back_outsideCutPath
10
0
20
349.875
11
0
21
340.125
0
LINE
8
back_outsideCutPath
10
0
20
340.125
11
3
21
340.125
0
LINE
8
back_outsideCutPath
10
3
20
340.125
11
3
21
330.375
0
LINE
8
back_outsideCutPath
10
3
20
330.375
11
0
21
330.375
0
LINE
8
back_outsideCutPath
10
0
20
330.375
11
0
21
320.625
0
LINE
8
back_outsideCutPath
10
0
20
320.625
11
3
21
320.625
0
LINE
8
back_outsideCutPath
10
3
20
320.625
11
3
21
310.875
0
LINE
8
back_outsideCutPath
10
3
20
310.875
11
0
21
310.875
0
LINE
8
back_outsideCutPath
10
0
20
310.875
11
0
21
301.125
0
LINE
8
back_outsideCutPath
10
0
20
301.125
11
3
21
301.125
0
LINE
8
back_outsideCutPath
10
3
20
301.125
11
3
21
291.375
0
LINE
8
back_outsideCutPath
10
3
20
291.375
11
0
21
291.375
0
LINE
8
back_outsideCutPath
10
0
20
291.375
11
0
21
281.625
0
LINE
8
back_outsideCutPath
10
0
20
281.625
11
3
21
281.625
0
LINE
8
back_outsideCutPath
10
3
20
281.625
11
3
21
271.875
0
LINE
8
back_outsideCutPath
10
3
20
271.875
11
0
21
271.875
0
LINE
8
back_outsideCutPath
10
0
20
271.875
11
0
21
262.125
0
LINE
8
back_outsideCutPath
10
0
20
262.125
11
3
21
262.125
0
LINE
8
back_outsideCutPath
10
3
20
262.125
11
3
21
252.375
0
LINE
8
back_outsideCutPath
10
3
20
252.375
11
0
21
252.375
0
LINE
8
back_outsideCutPath
10
0
20
252.375
11
0
21
242.625
0
LINE
8
back_outsideCutPath
10
0
20
242.625
11
3
21
242.625
0
LINE
8
back_outsideCutPath
10
3
20
242.625
11
3
21
232.875
0
LINE
8
back_outsideCutPath
10
3
20
232.875
11
0
21
232.875
0
LINE
8
back_outsideCutPath
10
0
20
232.875
11
0
21
219
0
LINE
8
back_outsideCutPath
10
0
20
219
11
9.125
21
219
0
LINE
8
back_outsideCutPath
10
9.125
20
219
11
9.125
21
222
0
LINE
8
back_outsideCutPath
10
9.125
20
222
11
18.875
21
222
0
LINE
8
back_outsideCutPath
10
18.875
20
222
11
18.875
21
219
0
LINE
8
back_outsideCutPath
10
18.875
20
219
11
28.625
21
219
0
LINE
8
back_outsideCutPath
10
28.625
20
219
11
28.625
21
222
0
LINE
8
back_outsideCutPath
10
28.625
20
222
11
38.375
21
222
0
LINE
8
back_outsideCutPath
10
38.375
20
222
11
38.375
21
219
0
LINE
8
back_outsideCutPath
10
38.375
20
219
11
48.125
21
219
0
LINE
8
back_outsideCutPath
10
48.125
20
219
11
48.125
21
222
0
LINE
8
back_outsideCutPath
10
48.125
20
222
11
57.875
21
222
0
LINE
8
back_outsideCutPath
10
57.875
20
222
11
57.875
21
219
0
LINE
8
back_outsideCutPath
10
57.875
20
219
11
67.625
21
219
0
LINE
8
back_outsideCutPath
10
67.625
20
219
11
67.625
21
222
0
LINE
8
back_outsideCutPath
10
67.625
20
222
11
77.375
21
222
0
LINE
8
back_outsideCutPath
10
77.375
20
222
11
77.375
21
219
0
LINE
8
back_outsideCutPath
10
77.375
20
219
11
87.125
21
219
0
LINE
8
back_outsideCutPath
10
87.125
20
219
11
87.125
21
222
0
LINE
8
back_outsideCutPath
10
87.125
20
222
11
96.875
21
222
0
LINE
8
back_outsideCutPath
10
96.875
20
222
11
96.875
21
219
0
LINE
8
back_outsideCutPath
10
96.875
20
219
11
106
21
219
0
LINE
8
back_outsideCutPath
10
106
20
219
11
106
21
232.875
0
LINE
8
back_outsideCutPath
10
106
20
232.875
11
103
21
232.875
0
LINE
8
back_outsideCutPath
10
103
20
232.875
11
103
21
242.625
0
LINE
8
back_outsideCutPath
10
103
20
242.625
11
106
21
242.625
0
LINE
8
back_outsideCutPath
10
106
20
242.625
11
106
21
252.375
0
LINE
8
back_outsideCutPath
10
106
20
252.375
11
103
21
252.375
0
LINE
8
back_outsideCutPath
10
103
20
252.375
11
103
21
262.125
0
LINE
8
back_outsideCutPath
10
103
20
262.125
11
106
21
262.125
0
LINE
8
back_outsideCutPath
10
106
20
262.125
11
106
21
271.875
0
LINE
8
back_outsideCutPath
10
106
20
271.875
11
103
21
271.875
0
LINE
8
back_outsideCutPath
10
103
20
271.875
11
103
21
281.625
0
LINE
8
back_outsideCutPath
10
103
20
281.625
11
106
21
281.625
0
LINE
8
back_outsideCutPath
10
106
20
281.625
11
106
21
291.375
0
LINE
8
back_outsideCutPath
10
106
20
291.375
11
103
21
291.375
0
LINE
8
back_outsideCutPath
10
103
20
291.375
11
103
21
301.125
0
LINE
8
back_outsideCutPath
10
103
20
301.125
11
106
21
301.125
0
LINE
8
back_outsideCutPath
10
106
20
301.125
11
106
21
310.875
0
LINE
8
back_outsideCutPath
10
106
20
310.875
11
103
21
310.875
0
LINE
8
back_outsideCutPath
10
103
20
310.875
11
103
21
320.625
0
LINE
8
back_outsideCutPath
10
103
20
320.625
11
106
21
320.625
0
LINE
8
back_outsideCutPath
10
106
20
320.625
11
106
21
330.375
0
LINE
8
back_outsideCutPath
10
106
20
330.375
11
103
21
330.375
0
LINE
8
back_outsideCutPath
10
103
20
330.375
11
103
21
340.125
0
LINE
8
back_outsideCutPath
10
103
20
340.125
11
106
21
340.125
0
LINE
8
back_outsideCutPath
10
106
20
340.125
11
106
21
349.875
0
LINE
8
back_outsideCutPath
10
106
20
349.875
11
103
21
349.875
0
LINE
8
back_outsideCutPath
10
103
20
349.875
11
103
21
359.625
0
LINE
8
back_outsideCutPath
10
103
20
359.625
11
106
21
359.625
0
LINE
8
back_outsideCutPath
10
106
20
359.625
11
106
21
369.375
0
LINE
8
back_outsideCutPath
10
106
20
369.375
11
103
21
369.375
0
LINE
8
back_outsideCutPath
10
103
20
369.375
11
103
21
379.125
0
LINE
8
back_outsideCutPath
10
103
20
379.125
11
106
21
379.125
0
LINE
8
back_outsideCutPath
10
106
20
379.125
11
106
21
388.875
0
LINE
8
back_outsideCutPath
10
106
20
388.875
11
103
21
388.875
0
LINE
8
back_outsideCutPath
10
103
20
388.875
11
103
21
398.625
0
LINE
8
back_outsideCutPath
10
103
20
398.625
11
106
21
398.625
0
LINE
8
back_outsideCutPath
10
106
20
398.625
11
106
21
408.375
0
LINE
8
back_outsideCutPath
10
106
20
408.375
11
103
21
408.375
0
LINE
8
back_outsideCutPath
10
103
20
408.375
11
103
21
418.125
0
LINE
8
back_outsideCutPath
10
103
20
418.125
11
106
21
418.125
0
LINE
8
back_outsideCutPath
10
106
20
418.125
11
106
21
432
0
LINE
8
back_outsideCutPath
10
106
20
432
11
0
21
432
0
LINE
8
back_labelLayer
10
32.7419922
20
319.0096873
11
32.6177734
21
319.0096873
0
LINE
8
back_labelLayer
10
32.6177734
20
319.0096873
11
32.2554688
21
317.5501169
0
LINE
8
back_labelLayer
10
32.2554688
20
317.5501169
11
31.0236328
21
317.5501169
0
LINE
8
back_labelLayer
10
31.0236328
20
317.5501169
11
31.0236328
21
333.6571482
0
LINE
8
back_labelLayer
10
31.0236328
20
333.6571482
11
32.7419922
21
333.6571482
0
LINE
8
back_labelLayer
10
32.7419922
20
333.6571482
11
32.7419922
21
329.7442576
0
LINE
8
back_labelLayer
10
32.6591797
20
327.3841013
11
32.7419922
21
327.3841013
0
ARC
8
back_labelLayer
10
36.3544789
20
323.8301091
40
5.2519014
50
74.239336
51
90.5623867
0
ARC
8
back_labelLayer
10
36.7017513
20
325.104095
40
3.9315031
50
38.5631361
51
74.0670352
0
ARC
8
back_labelLayer
10
35.8080623
20
324.4091999
40
5.0634979
50
16.4709266
51
38.4075335
0
ARC
8
back_labelLayer
10
33.2334667
20
323.6018818
40
7.7614655
50
5.133852
51
16.7973401
0
ARC
8
back_labelLayer
10
29.9832986
20
323.2566258
40
11.029617
50
359.8779187
51
5.4093655
0
ARC
8
back_labelLayer
10
30.9379249
20
323.1736851
40
10.0751411
50
350.6562753
51
0.3380264
0
ARC
8
back_labelLayer
10
34.4502782
20
322.5762721
40
6.5124238
50
335.8305994
51
350.8254751
0
ARC
8
back_labelLayer
10
35.9953025
20
321.9094189
40
4.829865
50
321.3161561
51
335.5436113
0
ARC
8
back_labelLayer
10
36.5859797
20
321.4281076
40
4.0679532
50
274.0640058
51
321.4081037
0
ARC
8
back_labelLayer
10
36.3108054
20
323.1711705
40
5.8280901
50
269.9225742
51
275.5481576
0
ARC
8
back_labelLayer
10
36.2739526
20
322.5551657
40
5.2121606
50
255.7755434
51
270.3185382
0
ARC
8
back_labelLayer
10
36.1252126
20
321.8943254
40
4.5350692
50
245.98016
51
255.545571
0
ARC
8
back_labelLayer
10
35.8371147
20
321.2243531
40
3.8058544
50
215.5850141
51
245.8361732
0
ARC
8
back_labelLayer
10
-3.0848086
20
329.7139756
40
35.8268136
50
358.1123308
51
0.0484282
0
ARC
8
back_labelLayer
10
6.8866447
20
329.3792126
40
25.8497451
50
355.7238618
51
358.1258976
0
ARC
8
back_labelLayer
10
11.2771721
20
329.0775505
40
21.4489632
50
355.4716423
51
355.6529388
0
ARC
8
back_labelLayer
10
35.9466572
20
325.1494026
40
3.9068857
50
95.1835091
51
145.1109035
0
ARC
8
back_labelLayer
10
36.2900563
20
323.2129555
40
5.8688161
50
89.8743201
51
96.8145441
0
ARC
8
back_labelLayer
10
36.0185165
20
322.8142947
40
4.8287297
50
89.5731223
51
100.7324239
0
ARC
8
back_labelLayer
10
35.661056
20
324.6203075
40
2.9877782
50
100.4469369
51
119.6700727
0
ARC
8
back_labelLayer
10
35.3295824
20
325.2400373
40
2.2852969
50
120.140297
51
142.4249044
0
ARC
8
back_labelLayer
10
35.8779799
20
324.8772545
40
2.9415309
50
143.3382371
51
161.2559891
0
ARC
8
back_labelLayer
10
38.1712726
20
324.0630597
40
5.3749378
50
160.8926454
51
171.2334352
0
ARC
8
back_labelLayer
10
41.999647
20
323.4454505
40
9.2527557
50
171.0667709
51
177.8456843
0
ARC
8
back_labelLayer
10
45.9813307
20
323.2429485
40
13.2393422
50
177.6176868
51
180.042514
0
ARC
8
back_labelLayer
10
44.1035278
20
323.1887578
40
11.3616223
50
179.7762604
51
185.7075338
0
ARC
8
back_labelLayer
10
39.6240456
20
322.7272094
40
6.8584596
50
185.5924725
51
194.20508
0
ARC
8
back_labelLayer
10
36.7545432
20
321.9824724
40
3.8939835
50
193.9430405
51
208.021844
0
ARC
8
back_labelLayer
10
35.5935365
20
321.3918367
40
2.5917095
50
208.5536617
51
217.5605097
0
ARC
8
back_labelLayer
10
35.4989373
20
321.3524894
40
2.4928743
50
218.169053
51
253.8047134
0
ARC
8
back_labelLayer
10
35.9613156
20
322.7780486
40
3.9910954
50
253.1382419
51
266.8483253
0
ARC
8
back_labelLayer
10
36.0909754
20
324.3070953
40
5.5251447
50
266.3775461
51
270.0510521
0
ARC
8
back_labelLayer
10
36.1325536
20
322.2072895
40
3.4255328
50
269.3868903
51
285.8630643
0
ARC
8
back_labelLayer
10
36.3870488
20
321.2875083
40
2.4712242
50
286.0162916
51
326.8497299
0
ARC
8
back_labelLayer
10
35.1587226
20
322.1012294
40
3.9446113
50
326.7105013
51
343.6661802
0
ARC
8
back_labelLayer
10
32.8593691
20
322.8038378
40
6.3488185
50
343.417134
51
353.6369171
0
ARC
8
back_labelLayer
10
29.3864184
20
323.2159265
40
9.8460762
50
353.493488
51
0.2205544
0
ARC
8
back_labelLayer
10
29.0802498
20
323.2949198
40
10.1522553
50
359.7680909
51
6.3095094
0
ARC
8
back_labelLayer
10
32.9044065
20
323.7337615
40
6.3030542
50
6.1648713
51
16.039625
0
ARC
8
back_labelLayer
10
35.3678591
20
324.4597375
40
3.7349518
50
15.7779591
51
32.0151077
0
ARC
8
back_labelLayer
10
36.135964
20
324.8995965
40
2.8506869
50
32.7034159
51
35.5241387
0
ARC
8
back_labelLayer
10
36.4170145
20
325.0993491
40
2.5058826
50
35.5408394
51
79.8011224
0
ARC
8
back_labelLayer
10
36.0805011
20
323.6687635
40
3.9742119
50
78.6781343
51
90.3749697
0
LINE
8
back_labelLayer
10
52.2650391
20
317.5501169
11
50.9917969
21
317.5501169
0
LINE
8
back_labelLayer
10
50.9917969
20
317.5501169
11
50.6501953
21
319.1649607
0
LINE
8
back_labelLayer
10
50.6501953
20
319.1649607
11
50.5673828
21
319.1649607
0
LINE
8
back_labelLayer
10
48.6626953
20
324.2889841
11
50.5880859
21
324.3510935
0
LINE
8
back_labelLayer
10
50.5880859
20
324.3510935
11
50.5880859
21
325.0549998
0
LINE
8
back_labelLayer
10
44.9671875
20
326.7940623
11
44.4392578
21
328.1087107
0
LINE
8
back_labelLayer
10
52.2650391
20
325.2930857
11
52.2650391
21
317.5501169
0
LINE
8
back_labelLayer
10
50.5466797
20
322.1048044
11
50.5466797
21
323.1296091
0
LINE
8
back_labelLayer
10
50.5466797
20
323.1296091
11
48.8283203
21
323.0571482
0
ARC
8
back_labelLayer
10
44.9765082
20
323.5792291
40
7.1234574
50
314.7445155
51
321.707185
0
ARC
8
back_labelLayer
10
46.7266401
20
321.8009606
40
4.6284458
50
304.848549
51
314.8530833
0
ARC
8
back_labelLayer
10
47.5673564
20
320.6042869
40
3.1659902
50
294.393271
51
304.7371359
0
ARC
8
back_labelLayer
10
47.2801288
20
321.3485191
40
3.9626752
50
281.2979654
51
293.7313496
0
ARC
8
back_labelLayer
10
46.9004336
20
323.1887188
40
5.8416134
50
272.9335119
51
281.4139116
0
ARC
8
back_labelLayer
10
46.774583
20
325.076063
40
7.7329797
50
269.9538874
51
273.1490996
0
ARC
8
back_labelLayer
10
46.7311086
20
322.6163775
40
5.2734233
50
258.671984
51
270.4047331
0
ARC
8
back_labelLayer
10
46.3648081
20
320.8641405
40
3.4834035
50
238.3273024
51
258.9183835
0
ARC
8
back_labelLayer
10
46.1123709
20
320.4036059
40
2.9590371
50
227.7688982
51
237.805046
0
ARC
8
back_labelLayer
10
46.0334306
20
320.2934045
40
2.8244252
50
192.0827732
51
227.4520649
0
ARC
8
back_labelLayer
10
47.489581
20
320.6523601
40
4.3237014
50
179.5457282
51
192.6949454
0
ARC
8
back_labelLayer
10
46.1368281
20
320.8089111
40
2.9733276
50
115.4904638
51
182.3568114
0
ARC
8
back_labelLayer
10
47.6259037
20
318.0776377
40
6.0819103
50
101.3568177
51
117.0798542
0
ARC
8
back_labelLayer
10
48.8217673
20
312.4892603
40
11.796574
50
92.4696244
51
101.7064921
0
ARC
8
back_labelLayer
10
49.1654839
20
307.5109985
40
16.7855175
50
91.7164781
51
92.9095668
0
ARC
8
back_labelLayer
10
45.6526044
20
325.0814152
40
4.9355522
50
359.6933475
51
8.0035717
0
ARC
8
back_labelLayer
10
47.5196312
20
325.3534004
40
3.0488561
50
7.8272837
51
20.6041754
0
ARC
8
back_labelLayer
10
48.5761453
20
325.7575693
40
1.9177033
50
20.409431
51
41.4479376
0
ARC
8
back_labelLayer
10
48.7322475
20
325.8433735
40
1.744335
50
42.7295617
51
71.0380074
0
ARC
8
back_labelLayer
10
48.3647384
20
324.8441101
40
2.8088844
50
70.5716125
51
83.9928928
0
ARC
8
back_labelLayer
10
48.189164
20
323.4179339
40
4.2456794
50
83.6506781
51
90.1753303
0
ARC
8
back_labelLayer
10
48.2199601
20
322.0691648
40
5.5946
50
90.4484518
51
103.7665491
0
ARC
8
back_labelLayer
10
48.8778646
20
319.2947624
40
8.445889
50
103.6226656
51
112.4319882
0
ARC
8
back_labelLayer
10
50.0055659
20
316.447408
40
11.5081932
50
112.2122267
51
115.9641025
0
ARC
8
back_labelLayer
10
48.1996246
20
321.1351555
40
7.9228045
50
106.3568497
51
118.3349836
0
ARC
8
back_labelLayer
10
48.537001
20
320.093055
40
9.0177897
50
104.5161883
51
106.5490244
0
ARC
8
back_labelLayer
10
48.2896098
20
321.1238463
40
7.9579174
50
90.0714391
51
104.6521055
0
ARC
8
back_labelLayer
10
48.3208414
20
321.8244656
40
7.2574086
50
81.5679797
51
90.3249037
0
ARC
8
back_labelLayer
10
48.7404553
20
324.5581285
40
4.4917872
50
68.2273526
51
81.7494304
0
ARC
8
back_labelLayer
10
49.3249035
20
326.0122901
40
2.9245768
50
47.8683391
51
68.2933974
0
ARC
8
back_labelLayer
10
49.4197622
20
326.2016947
40
2.7210697
50
19.2331057
51
46.6741094
0
ARC
8
back_labelLayer
10
47.839593
20
325.6138692
40
4.4068155
50
6.3378913
51
19.6815321
0
ARC
8
back_labelLayer
10
45.5036893
20
325.3163712
40
6.7613898
50
359.8026789
51
6.6583403
0
ARC
8
back_labelLayer
10
47.1447076
20
323.4922682
40
4.7311461
50
269.5792026
51
282.0413495
0
ARC
8
back_labelLayer
10
47.4898121
20
321.9615282
40
3.1621437
50
281.7120834
51
306.4593992
0
ARC
8
back_labelLayer
10
47.6428446
20
321.7098623
40
2.8689163
50
306.9880952
51
313.855947
0
ARC
8
back_labelLayer
10
47.6246312
20
321.7046598
40
2.8778326
50
314.1891901
51
347.4269849
0
ARC
8
back_labelLayer
10
46.1830576
20
322.0659122
40
4.3636474
50
346.917755
51
0.2824783
0
ARC
8
back_labelLayer
10
45.0820775
20
322.1048565
40
5.4646024
50
359.8172389
51
359.9994539
0
ARC
8
back_labelLayer
10
49.237065
20
310.4465977
40
12.617173
50
91.8564732
51
96.4478493
0
ARC
8
back_labelLayer
10
48.6680699
20
315.3702537
40
7.6607745
50
96.3545462
51
102.9953168
0
ARC
8
back_labelLayer
10
47.8956918
20
318.6518625
40
4.289552
50
102.7995516
51
113.2433202
0
ARC
8
back_labelLayer
10
47.2589723
20
320.1746546
40
2.6391291
50
113.5886893
51
121.6804938
0
ARC
8
back_labelLayer
10
46.8165864
20
320.8483981
40
1.8335868
50
120.9733982
51
172.4179873
0
ARC
8
back_labelLayer
10
47.6812483
20
320.6756869
40
2.7140783
50
171.2122042
51
180.2058205
0
ARC
8
back_labelLayer
10
47.4228405
20
320.6456469
40
2.4557368
50
179.5265925
51
192.7787076
0
ARC
8
back_labelLayer
10
46.592106
20
320.4442748
40
1.6010873
50
192.3264616
51
222.0579913
0
ARC
8
back_labelLayer
10
46.5302788
20
320.4072856
40
1.530468
50
222.5803796
51
229.2547836
0
ARC
8
back_labelLayer
10
46.7391195
20
320.6761543
40
1.8705575
50
229.7837108
51
254.2724268
0
ARC
8
back_labelLayer
10
47.0172185
20
321.6028902
40
2.8380282
50
253.9396582
51
266.4534001
0
ARC
8
back_labelLayer
10
47.1059772
20
322.6259531
40
3.8647053
50
266.0782906
51
270.059061
0
LINE
8
back_labelLayer
10
63.3722656
20
328.5124216
11
62.8443359
21
327.0528513
0
LINE
8
back_labelLayer
10
63.2066406
20
319.4548044
11
63.2066406
21
317.9331248
0
ARC
8
back_labelLayer
10
60.2844485
20
323.765047
40
6.4221952
50
256.4243742
51
270.4889888
0
ARC
8
back_labelLayer
10
59.7712543
20
321.7620956
40
4.3548375
50
221.7976241
51
256.802057
0
ARC
8
back_labelLayer
10
60.2682265
20
322.1292894
40
4.9703999
50
196.0166659
51
221.1349169
0
ARC
8
back_labelLayer
10
62.7659467
20
322.8927224
40
7.5819377
50
183.5913756
51
196.353964
0
ARC
8
back_labelLayer
10
65.563917
20
323.1392208
40
10.3900948
50
179.9388368
51
183.9815195
0
ARC
8
back_labelLayer
10
64.654859
20
323.2113555
40
9.4812274
50
169.8978353
51
180.3688913
0
ARC
8
back_labelLayer
10
61.3542321
20
323.8219237
40
6.1247157
50
153.0875168
51
170.1051335
0
ARC
8
back_labelLayer
10
60.1019022
20
324.42032
40
4.7372797
50
138.6550074
51
152.6853483
0
ARC
8
back_labelLayer
10
59.8681647
20
324.5906527
40
4.4493611
50
101.4912887
51
138.3133904
0
ARC
8
back_labelLayer
10
60.4047625
20
322.3573852
40
6.7452489
50
89.589194
51
102.1787659
0
ARC
8
back_labelLayer
10
60.4460237
20
321.3479919
40
7.7544721
50
77.770245
51
89.9475306
0
ARC
8
back_labelLayer
10
60.2992903
20
320.5384366
40
8.5767843
50
74.679656
51
77.957873
0
ARC
8
back_labelLayer
10
61.0920758
20
323.4105266
40
5.5972946
50
70.0945801
51
74.7386379
0
ARC
8
back_labelLayer
10
61.8462093
20
325.4772298
40
3.3973101
50
63.5033887
51
70.1861774
0
ARC
8
back_labelLayer
10
62.2050539
20
326.2287638
40
2.564659
50
62.9277448
51
63.1874656
0
ARC
8
back_labelLayer
10
60.0215096
20
319.948779
40
7.6443568
50
68.3294398
51
74.8831201
0
ARC
8
back_labelLayer
10
59.6182584
20
318.5189098
40
9.1299247
50
74.7801817
51
77.4497761
0
ARC
8
back_labelLayer
10
60.0416557
20
320.5063124
40
7.0980314
50
77.2998551
51
81.7345474
0
ARC
8
back_labelLayer
10
60.3504627
20
322.6581019
40
4.9242007
50
81.6910207
51
87.5079038
0
ARC
8
back_labelLayer
10
60.4100512
20
323.7719268
40
3.8088546
50
87.6748976
51
89.9749153
0
ARC
8
back_labelLayer
10
60.3265347
20
323.7701583
40
3.8115747
50
88.719403
51
112.5667595
0
ARC
8
back_labelLayer
10
60.0556963
20
324.6656205
40
2.8822567
50
114.4265712
51
161.6632823
0
ARC
8
back_labelLayer
10
62.7462111
20
323.6125253
40
5.7694966
50
160.141851
51
175.1368041
0
ARC
8
back_labelLayer
10
66.4493395
20
323.1966935
40
9.4950773
50
174.5309826
51
180.1549485
0
ARC
8
back_labelLayer
10
65.2761325
20
323.128042
40
8.3219466
50
179.7041314
51
188.0743727
0
ARC
8
back_labelLayer
10
62.2786662
20
322.6894785
40
5.292612
50
187.9315116
51
200.3885451
0
ARC
8
back_labelLayer
10
60.6579139
20
322.0890716
40
3.564225
50
200.4183296
51
216.6392758
0
ARC
8
back_labelLayer
10
59.9784574
20
321.6033449
40
2.729199
50
216.9695381
51
261.3103041
0
ARC
8
back_labelLayer
10
60.2783181
20
323.0013539
40
4.1573374
50
260.1359653
51
270.2692084
0
ARC
8
back_labelLayer
10
60.264476
20
326.0372423
40
7.1932574
50
270.2658443
51
286.2891485
0
ARC
8
back_labelLayer
10
59.8271871
20
327.668049
40
8.881334
50
286.0460562
51
292.3653966
0
ARC
8
back_labelLayer
10
60.9917604
20
322.2903229
40
4.8878288
50
282.0344356
51
296.9454468
0
ARC
8
back_labelLayer
10
60.4890819
20
324.5557036
40
7.208256
50
272.5980381
51
282.187845
0
ARC
8
back_labelLayer
10
60.3449267
20
326.7666715
40
9.4235875
50
269.9655328
51
272.8642627
0
LINE
8
back_labelLayer
10
67.5128906
20
323.3573435
11
67.5957031
21
323.3573435
0
LINE
8
back_labelLayer
10
68.9517578
20
325.0135935
11
72.6162109
21
328.8954294
0
LINE
8
back_labelLayer
10
72.6162109
20
328.8954294
11
74.6554688
21
328.8954294
0
LINE
8
back_labelLayer
10
74.6554688
20
328.8954294
11
70.059375
21
324.0612498
0
LINE
8
back_labelLayer
10
70.059375
20
324.0612498
11
74.9763672
21
317.5501169
0
LINE
8
back_labelLayer
10
74.9763672
20
317.5501169
11
72.8957031
21
317.5501169
0
LINE
8
back_labelLayer
10
72.8957031
20
317.5501169
11
68.8896484
21
322.9122263
0
LINE
8
back_labelLayer
10
68.8896484
20
322.9122263
11
67.5957031
21
321.7942576
0
LINE
8
back_labelLayer
10
67.5957031
20
321.7942576
11
67.5957031
21
317.5501169
0
LINE
8
back_labelLayer
10
67.5957031
20
317.5501169
11
65.8980469
21
317.5501169
0
LINE
8
back_labelLayer
10
65.8980469
20
317.5501169
11
65.8980469
21
333.6571482
0
LINE
8
back_labelLayer
10
65.8980469
20
333.6571482
11
67.5957031
21
333.6571482
0
LINE
8
back_labelLayer
10
67.5957031
20
333.6571482
11
67.5957031
21
325.1171091
0
ARC
8
back_labelLayer
10
75.8986451
20
317.4801688
40
10.1725134
50
142.3233787
51
144.70752
0
ARC
8
back_labelLayer
10
81.3155989
20
313.3019524
40
17.0136296
50
140.4331106
51
142.3365771
0
ARC
8
back_labelLayer
10
88.3752789
20
307.4905969
40
26.1575209
50
139.2799177
51
140.4703452
0
ARC
8
back_labelLayer
10
96.5369638
20
300.4720954
40
36.9219272
50
138.3417387
51
139.2877196
0
ARC
8
back_labelLayer
10
56.1443588
20
325.1385467
40
11.4513644
50
358.2739461
51
359.8927392
0
ARC
8
back_labelLayer
10
47.2383112
20
325.3867241
40
20.3608564
50
357.5041207
51
358.3307673
0
ARC
8
back_labelLayer
10
33.9033661
20
325.9756811
40
33.7087998
50
356.6325271
51
357.4910425
0
ARC
8
back_labelLayer
10
11.7381629
20
327.2684425
40
55.9116685
50
356.0329297
51
356.6442576
0
ARC
8
back_labelLayer
10
-3.4083812
20
328.2911798
40
71.0926827
50
356.0204707
51
356.0551723
0
LINE
8
right_outsideCutPath
10
112
20
432
11
112
21
418.125
0
LINE
8
right_outsideCutPath
10
112
20
418.125
11
109
21
418.125
0
LINE
8
right_outsideCutPath
10
109
20
418.125
11
109
21
408.375
0
LINE
8
right_outsideCutPath
10
109
20
408.375
11
112
21
408.375
0
LINE
8
right_outsideCutPath
10
112
20
408.375
11
112
21
398.625
0
LINE
8
right_outsideCutPath
10
112
20
398.625
11
109
21
398.625
0
LINE
8
right_outsideCutPath
10
109
20
398.625
11
109
21
388.875
0
LINE
8
right_outsideCutPath
10
109
20
388.875
11
112
21
388.875
0
LINE
8
right_outsideCutPath
10
112
20
388.875
11
112
21
379.125
0
LINE
8
right_outsideCutPath
10
112
20
379.125
11
109
21
379.125
0
LINE
8
right_outsideCutPath
10
109
20
379.125
11
109
21
369.375
0
LINE
8
right_outsideCutPath
10
109
20
369.375
11
112
21
369.375
0
LINE
8
right_outsideCutPath
10
112
20
369.375
11
112
21
359.625
0
LINE
8
right_outsideCutPath
10
112
20
359.625
11
109
21
359.625
0
LINE
8
right_outsideCutPath
10
109
20
359.625
11
109
21
349.875
0
LINE
8
right_outsideCutPath
10
109
20
349.875
11
112
21
349.875
0
LINE
8
right_outsideCutPath
10
112
20
349.875
11
112
21
340.125
0
LINE
8
right_outsideCutPath
10
112
20
340.125
11
109
21
340.125
0
LINE
8
right_outsideCutPath
10
109
20
340.125
11
109
21
330.375
0
LINE
8
right_outsideCutPath
10
109
20
330.375
11
112
21
330.375
0
LINE
8
right_outsideCutPath
10
112
20
330.375
11
112
21
320.625
0
LINE
8
right_outsideCutPath
10
112
20
320.625
11
109
21
320.625
0
LINE
8
right_outsideCutPath
10
109
20
320.625
11
109
21
310.875
0
LINE
8
right_outsideCutPath
10
109
20
310.875
11
112
21
310.875
0
LINE
8
right_outsideCutPath
10
112
20
310.875
11
112
21
301.125
0
LINE
8
right_outsideCutPath
10
112
20
301.125
11
109
21
301.125
0
LINE
8
right_outsideCutPath
10
109
20
301.125
11
109
21
291.375
0
LINE
8
right_outsideCutPath
10
109
20
291.375
11
112
21
291.375
0
LINE
8
right_outsideCutPath
10
112
20
291.375
11
112
21
281.625
0
LINE
8
right_outsideCutPath
10
112
20
281.625
11
109
21
281.625
0
LINE
8
right_outsideCutPath
10
109
20
281.625
11
109
21
271.875
0
LINE
8
right_outsideCutPath
10
109
20
271.875
11
112
21
271.875
0
LINE
8
right_outsideCutPath
10
112
20
271.875
11
112
21
262.125
0
LINE
8
right_outsideCutPath
10
112
20
262.125
11
109
21
262.125
0
LINE
8
right_outsideCutPath
10
109
20
262.125
11
109
21
252.375
0
LINE
8
right_outsideCutPath
10
109
20
252.375
11
112
21
252.375
0
LINE
8
right_outsideCutPath
10
112
20
252.375
11
112
21
242.625
0
LINE
8
right_outsideCutPath
10
112
20
242.625
11
109
21
242.625
0
LINE
8
right_outsideCutPath
10
109
20
242.625
11
109
21
232.875
0
LINE
8
right_outsideCutPath
10
109
20
232.875
11
112
21
232.875
0
LINE
8
right_outsideCutPath
10
112
20
232.875
11
112
21
219
0
LINE
8
right_outsideCutPath
10
112
20
219
11
117.375
21
219
0
LINE
8
right_outsideCutPath
10
117.375
20
219
11
117.375
21
222
0
LINE
8
right_outsideCutPath
10
117.375
20
222
11
127.125
21
222
0
LINE
8
right_outsideCutPath
10
127.125
20
222
11
127.125
21
219
0
LINE
8
right_outsideCutPath
10
127.125
20
219
11
136.875
21
219
0
LINE
8
right_outsideCutPath
10
136.875
20
219
11
136.875
21
222
0
LINE
8
right_outsideCutPath
10
136.875
20
222
11
146.625
21
222
0
LINE
8
right_outsideCutPath
10
146.625
20
222
11
146.625
21
219
0
LINE
8
right_outsideCutPath
10
146.625
20
219
11
152
21
219
0
LINE
8
right_outsideCutPath
10
152
20
219
11
152
21
232.875
0
LINE
8
right_outsideCutPath
10
152
20
232.875
11
155
21
232.875
0
LINE
8
right_outsideCutPath
10
155
20
232.875
11
155
21
242.625
0
LINE
8
right_outsideCutPath
10
155
20
242.625
11
152
21
242.625
0
LINE
8
right_outsideCutPath
10
152
20
242.625
11
152
21
252.375
0
LINE
8
right_outsideCutPath
10
152
20
252.375
11
155
21
252.375
0
LINE
8
right_outsideCutPath
10
155
20
252.375
11
155
21
262.125
0
LINE
8
right_outsideCutPath
10
155
20
262.125
11
152
21
262.125
0
LINE
8
right_outsideCutPath
10
152
20
262.125
11
152
21
271.875
0
LINE
8
right_outsideCutPath
10
152
20
271.875
11
155
21
271.875
0
LINE
8
right_outsideCutPath
10
155
20
271.875
11
155
21
281.625
0
LINE
8
right_outsideCutPath
10
155
20
281.625
11
152
21
281.625
0
LINE
8
right_outsideCutPath
10
152
20
281.625
11
152
21
291.375
0
LINE
8
right_outsideCutPath
10
152
20
291.375
11
155
21
291.375
0
LINE
8
right_outsideCutPath
10
155
20
291.375
11
155
21
301.125
0
LINE
8
right_outsideCutPath
10
155
20
301.125
11
152
21
301.125
0
LINE
8
right_outsideCutPath
10
152
20
301.125
11
152
21
310.875
0
LINE
8
right_outsideCutPath
10
152
20
310.875
11
155
21
310.875
0
LINE
8
right_outsideCutPath
10
155
20
310.875
11
155
21
320.625
0
LINE
8
right_outsideCutPath
10
155
20
320.625
11
152
21
320.625
0
LINE
8
right_outsideCutPath
10
152
20
320.625
11
152
21
330.375
0
LINE
8
right_outsideCutPath
10
152
20
330.375
11
155
21
330.375
0
LINE
8
right_outsideCutPath
10
155
20
330.375
11
155
21
340.125
0
LINE
8
right_outsideCutPath
10
155
20
340.125
11
152
21
340.125
0
LINE
8
right_outsideCutPath
10
152
20
340.125
11
152
21
349.875
0
LINE
8
right_outsideCutPath
10
152
20
349.875
11
155
21
349.875
0
LINE
8
right_outsideCutPath
10
155
20
349.875
11
155
21
359.625
0
LINE
8
right_outsideCutPath
10
155
20
359.625
11
152
21
359.625
0
LINE
8
right_outsideCutPath
10
152
20
359.625
11
152
21
369.375
0
LINE
8
right_outsideCutPath
10
152
20
369.375
11
155
21
369.375
0
LINE
8
right_outsideCutPath
10
155
20
369.375
11
155
21
379.125
0
LINE
8
right_outsideCutPath
10
155
20
379.125
11
152
21
379.125
0
LINE
8
right_outsideCutPath
10
152
20
379.125
11
152
21
388.875
0
LINE
8
right_outsideCutPath
10
152
20
388.875
11
155
21
388.875
0
LINE
8
right_outsideCutPath
10
155
20
388.875
11
155
21
398.625
0
LINE
8
right_outsideCutPath
10
155
20
398.625
11
152
21
398.625
0
LINE
8
right_outsideCutPath
10
152
20
398.625
11
152
21
408.375
0
LINE
8
right_outsideCutPath
10
152
20
408.375
11
155
21
408.375
0
LINE
8
right_outsideCutPath
10
155
20
408.375
11
155
21
418.125
0
LINE
8
right_outsideCutPath
10
155
20
418.125
11
152
21
418.125
0
LINE
8
right_outsideCutPath
10
152
20
418.125
11
152
21
432
0
LINE
8
right_outsideCutPath
10
152
20
432
11
112
21
432
0
LINE
8
right_labelLayer
10
125.3178711
20
328.0695584
11
125.2145508
21
327.3777615
0
LINE
8
right_labelLayer
10
123.2290039
20
325.7515896
11
123.2290039
21
323.1101834
0
LINE
8
right_labelLayer
10
123.2290039
20
323.1101834
11
122.4833008
21
323.1101834
0
LINE
8
right_labelLayer
10
122.4833008
20
323.1101834
11
122.4833008
21
328.0336209
0
LINE
8
right_labelLayer
10
122.4833008
20
328.0336209
11
123.0987305
21
328.0336209
0
LINE
8
right_labelLayer
10
123.0987305
20
328.0336209
11
123.184082
21
327.1217068
0
LINE
8
right_labelLayer
10
123.184082
20
327.1217068
11
123.2200195
21
327.1217068
0
ARC
8
right_labelLayer
10
124.7370506
20
324.7000855
40
3.4233877
50
84.9922986
51
90.1281372
0
ARC
8
right_labelLayer
10
124.8192581
20
325.6211567
40
2.4986567
50
78.4892142
51
85.0265509
0
ARC
8
right_labelLayer
10
124.5001597
20
324.169815
40
3.2865294
50
77.445425
51
81.636059
0
ARC
8
right_labelLayer
10
124.643352
20
325.1568429
40
2.2891716
50
81.5884004
51
87.1916865
0
ARC
8
right_labelLayer
10
124.6744453
20
325.6958603
40
1.7492842
50
87.3438928
51
89.9658391
0
ARC
8
right_labelLayer
10
124.6672244
20
326.1530876
40
1.2920831
50
89.6335478
51
137.088074
0
ARC
8
right_labelLayer
10
124.9843067
20
325.7965206
40
1.767671
50
135.6209838
51
138.8378512
0
ARC
8
right_labelLayer
10
124.9378597
20
325.841854
40
1.7028692
50
138.957573
51
174.5422254
0
ARC
8
right_labelLayer
10
125.4924586
20
325.7550769
40
2.2634573
50
173.6907879
51
180.0882753
0
ARC
8
right_labelLayer
10
125.4140329
20
325.885609
40
2.5182598
50
139.4139008
51
150.6032753
0
ARC
8
right_labelLayer
10
124.9625035
20
326.2725263
40
1.9236309
50
124.2321114
51
139.4161564
0
ARC
8
right_labelLayer
10
124.7210838
20
326.6369506
40
1.4865373
50
89.6796751
51
124.4405619
0
LINE
8
right_labelLayer
10
126.9844727
20
328.0336209
11
126.9844727
21
323.1101834
0
LINE
8
right_labelLayer
10
126.9844727
20
323.1101834
11
126.2387695
21
323.1101834
0
LINE
8
right_labelLayer
10
126.2387695
20
323.1101834
11
126.2387695
21
328.0336209
0
LINE
8
right_labelLayer
10
126.2387695
20
328.0336209
11
126.9844727
21
328.0336209
0
ARC
8
right_labelLayer
10
127.0021858
20
329.372914
40
0.8263227
50
170.8452035
51
180.3545609
0
ARC
8
right_labelLayer
10
126.6928516
20
329.4246352
40
0.5127031
50
155.9679351
51
171.0515596
0
ARC
8
right_labelLayer
10
126.5430151
20
329.4911095
40
0.3487833
50
133.7879399
51
155.9172727
0
ARC
8
right_labelLayer
10
126.5983352
20
329.4299508
40
0.4312217
50
92.6446408
51
133.4709856
0
ARC
8
right_labelLayer
10
126.6158078
20
329.2927599
40
0.5691815
50
89.9692457
51
93.7644759
0
ARC
8
right_labelLayer
10
126.622922
20
329.4226351
40
0.4393588
50
46.3708427
51
90.8879408
0
ARC
8
right_labelLayer
10
126.6666496
20
329.4677782
40
0.3765121
50
17.7251032
51
46.4473571
0
ARC
8
right_labelLayer
10
126.4627429
20
329.39756
40
0.5921365
50
4.9427118
51
18.1900732
0
ARC
8
right_labelLayer
10
126.2032994
20
329.3695139
40
0.85305
50
359.88492
51
5.3180529
0
ARC
8
right_labelLayer
10
126.2848302
20
329.3625603
40
0.7715353
50
349.8344686
51
0.3891566
0
ARC
8
right_labelLayer
10
126.5657074
20
329.3101629
40
0.4858236
50
332.6322879
51
350.0705822
0
ARC
8
right_labelLayer
10
126.6750343
20
329.256179
40
0.363924
50
313.6154023
51
332.2677025
0
ARC
8
right_labelLayer
10
126.6223479
20
329.3041521
40
0.435029
50
269.1788347
51
314.280748
0
ARC
8
right_labelLayer
10
126.6111708
20
329.3428241
40
0.4736821
50
250.4999611
51
270.5978447
0
ARC
8
right_labelLayer
10
126.5968357
20
329.2892218
40
0.4183922
50
225.1300791
51
249.9001449
0
ARC
8
right_labelLayer
10
126.5743908
20
329.2644286
40
0.3849894
50
197.7933623
51
224.8942471
0
ARC
8
right_labelLayer
10
126.7844524
20
329.3364146
40
0.607016
50
184.9924579
51
198.2040363
0
ARC
8
right_labelLayer
10
127.0562709
20
329.3659631
40
0.8803939
50
179.8804153
51
185.3687186
0
LINE
8
right_labelLayer
10
130.8926758
20
328.0336209
11
132.5952148
21
328.0336209
0
LINE
8
right_labelLayer
10
132.5952148
20
328.0336209
11
132.5952148
21
327.5619412
0
LINE
8
right_labelLayer
10
132.5952148
20
327.5619412
11
131.6833008
21
327.4541287
0
LINE
8
right_labelLayer
10
130.0032227
20
323.891824
11
130.874707
21
323.891824
0
LINE
8
right_labelLayer
10
130.6366211
20
323.2224881
11
129.7426758
21
323.2224881
0
ARC
8
right_labelLayer
10
130.7330269
20
326.7020916
40
1.2118499
50
29.4583993
51
38.3577351
0
ARC
8
right_labelLayer
10
130.2377981
20
326.4193868
40
1.7820858
50
23.1845302
51
29.5421646
0
ARC
8
right_labelLayer
10
129.7650862
20
326.2097629
40
2.2991595
50
21.2507433
51
23.3487895
0
ARC
8
right_labelLayer
10
130.5684545
20
326.5292683
40
1.4346281
50
6.8504714
51
20.9871884
0
ARC
8
right_labelLayer
10
130.1643934
20
326.4744853
40
1.8423494
50
359.8710728
51
7.0431648
0
ARC
8
right_labelLayer
10
130.2973404
20
326.4525652
40
1.7094903
50
342.5649675
51
0.5957448
0
ARC
8
right_labelLayer
10
130.6126204
20
326.3655052
40
1.382657
50
310.609807
51
342.0923371
0
ARC
8
right_labelLayer
10
130.435826
20
326.5711492
40
1.6538499
50
284.9315561
51
310.6223023
0
ARC
8
right_labelLayer
10
130.2145814
20
327.3464208
40
2.4599909
50
272.5335038
51
285.2579545
0
ARC
8
right_labelLayer
10
130.1577023
20
328.123295
40
3.238698
50
269.9691243
51
272.9312514
0
ARC
8
right_labelLayer
10
130.1506372
20
327.2811307
40
2.3965392
50
263.4836294
51
270.1271844
0
ARC
8
right_labelLayer
10
130.1116086
20
326.910433
40
2.0238098
50
259.4964629
51
263.3904026
0
ARC
8
right_labelLayer
10
130.3531946
20
323.7423946
40
1.3269318
50
117.3934419
51
128.4096101
0
ARC
8
right_labelLayer
10
130.0115985
20
324.1661676
40
0.7826535
50
128.0882498
51
147.1399802
0
ARC
8
right_labelLayer
10
129.8275555
20
324.2896752
40
0.5610573
50
147.5368909
51
180.2592596
0
ARC
8
right_labelLayer
10
129.6529602
20
324.2823596
40
0.3864858
50
179.2918186
51
198.3581533
0
ARC
8
right_labelLayer
10
129.5806001
20
324.263342
40
0.3118548
50
199.229137
51
239.5691464
0
ARC
8
right_labelLayer
10
129.6405509
20
324.3461616
40
0.413745
50
238.2196616
51
239.8458005
0
ARC
8
right_labelLayer
10
129.6884643
20
324.4447089
40
0.5230871
50
240.7301612
51
254.5027192
0
ARC
8
right_labelLayer
10
129.831238
20
324.9367093
40
1.035366
50
254.1638235
51
262.2122344
0
ARC
8
right_labelLayer
10
129.9443173
20
325.7265177
40
1.8332195
50
262.0555225
51
267.2083503
0
ARC
8
right_labelLayer
10
129.9989453
20
326.7284394
40
2.8366186
50
267.0918966
51
270.086396
0
ARC
8
right_labelLayer
10
130.8910091
20
320.8394076
40
3.0524599
50
81.574398
51
90.3059967
0
ARC
8
right_labelLayer
10
131.0584453
20
321.9313768
40
1.947751
50
68.3671312
51
81.7399603
0
ARC
8
right_labelLayer
10
131.2771322
20
322.4902573
40
1.3476172
50
52.1879461
51
68.2501293
0
ARC
8
right_labelLayer
10
131.4301509
20
322.6964387
40
1.0909308
50
8.6201177
51
51.8982673
0
ARC
8
right_labelLayer
10
130.8938499
20
322.5829617
40
1.6384907
50
359.7430261
51
9.7326427
0
ARC
8
right_labelLayer
10
130.9178583
20
322.5553202
40
1.6145934
50
340.5269084
51
0.7201344
0
ARC
8
right_labelLayer
10
131.155085
20
322.496254
40
1.3714455
50
302.9903569
51
339.549461
0
ARC
8
right_labelLayer
10
130.9060471
20
322.8127251
40
1.7728673
50
303.1868991
51
304.1721756
0
ARC
8
right_labelLayer
10
130.6739804
20
323.2145202
40
2.2363001
50
286.2542329
51
302.5279913
0
ARC
8
right_labelLayer
10
130.2516318
20
324.6076307
40
3.691975
50
276.4940032
51
286.495328
0
ARC
8
right_labelLayer
10
129.9881156
20
326.810499
40
5.9105262
50
269.7545257
51
276.6169476
0
ARC
8
right_labelLayer
10
129.9431125
20
325.0779617
40
4.1779809
50
262.5634801
51
270.2698936
0
ARC
8
right_labelLayer
10
129.7384813
20
323.5612449
40
2.6475447
50
251.2101893
51
262.7064177
0
ARC
8
right_labelLayer
10
129.4435429
20
322.6955585
40
1.7329948
50
235.9668225
51
251.2229119
0
ARC
8
right_labelLayer
10
129.1309329
20
322.2495857
40
1.1884893
50
208.9036226
51
236.4231394
0
ARC
8
right_labelLayer
10
129.1596313
20
322.2375557
40
1.2080448
50
182.2080024
51
207.7461708
0
ARC
8
right_labelLayer
10
129.5247497
20
322.2740404
40
1.5744569
50
179.9783064
51
183.0228405
0
ARC
8
right_labelLayer
10
129.0903339
20
322.2946407
40
1.1402164
50
138.3916197
51
181.0052604
0
ARC
8
right_labelLayer
10
129.2107419
20
322.1864301
40
1.3021016
50
113.8121466
51
138.3496444
0
ARC
8
right_labelLayer
10
129.4391414
20
321.6932232
40
1.8455638
50
102.2870868
51
114.1173163
0
ARC
8
right_labelLayer
10
129.3673742
20
324.2007519
40
0.7739428
50
216.5861483
51
245.4968564
0
ARC
8
right_labelLayer
10
129.4778766
20
324.2945383
40
0.9186202
50
215.4649472
51
217.1752017
0
ARC
8
right_labelLayer
10
129.2936233
20
324.1614544
40
0.6913369
50
182.1767265
51
215.3416051
0
ARC
8
right_labelLayer
10
129.4579589
20
324.1790841
40
0.8562989
50
179.9839465
51
182.93787
0
ARC
8
right_labelLayer
10
129.4543836
20
324.1865319
40
0.8527539
50
161.7225577
51
180.4842985
0
ARC
8
right_labelLayer
10
129.3606229
20
324.2121173
40
0.755717
50
144.4963331
51
161.3350924
0
ARC
8
right_labelLayer
10
129.6105628
20
324.0258394
40
1.0673891
50
132.7259494
51
144.1479053
0
ARC
8
right_labelLayer
10
130.0111324
20
323.5980774
40
1.6534146
50
125.2213097
51
132.865536
0
ARC
8
right_labelLayer
10
130.4138447
20
323.038862
40
2.3425223
50
121.2352885
51
125.3795159
0
ARC
8
right_labelLayer
10
129.6999253
20
326.24937
40
1.3072766
50
215.1640669
51
247.4748017
0
ARC
8
right_labelLayer
10
129.943951
20
326.4463131
40
1.6203218
50
212.4715212
51
215.8876733
0
ARC
8
right_labelLayer
10
129.8797825
20
326.4004003
40
1.5415415
50
183.0160939
51
212.3122976
0
ARC
8
right_labelLayer
10
130.2180674
20
326.4381045
40
1.8814465
50
179.9759467
51
183.6206772
0
ARC
8
right_labelLayer
10
130.491009
20
326.4570912
40
2.1544647
50
166.8195881
51
180.4839325
0
ARC
8
right_labelLayer
10
129.7762855
20
326.6375432
40
1.4174801
50
132.3287723
51
167.3340936
0
ARC
8
right_labelLayer
10
129.8719058
20
326.5000971
40
1.5836331
50
106.2188943
51
131.5377595
0
ARC
8
right_labelLayer
10
130.1138418
20
325.71673
40
2.403436
50
93.6329658
51
106.5408868
0
ARC
8
right_labelLayer
10
130.1928272
20
324.8299618
40
3.2935048
50
89.9380763
51
94.0267726
0
ARC
8
right_labelLayer
10
130.205615
20
325.2651749
40
2.8583047
50
82.5852062
51
90.184985
0
ARC
8
right_labelLayer
10
130.2929521
20
325.9409159
40
2.1769433
50
74.0088506
51
82.5694484
0
ARC
8
right_labelLayer
10
129.4179088
20
322.2734358
40
0.7489351
50
179.2207896
51
200.9355808
0
ARC
8
right_labelLayer
10
129.3288472
20
322.2528139
40
0.6585045
50
202.0287224
51
236.1457011
0
ARC
8
right_labelLayer
10
129.4630773
20
322.4232471
40
0.8749753
50
235.0634127
51
238.504075
0
ARC
8
right_labelLayer
10
129.6191239
20
322.7019716
40
1.194228
50
239.1066229
51
254.4862368
0
ARC
8
right_labelLayer
10
129.8271751
20
323.4193252
40
1.941112
50
254.2323715
51
263.4937862
0
ARC
8
right_labelLayer
10
129.9578667
20
324.5262238
40
3.0556938
50
263.4107943
51
270.1458036
0
ARC
8
right_labelLayer
10
129.9717739
20
325.3863992
40
3.9158641
50
269.9102888
51
270.00005
0
ARC
8
right_labelLayer
10
129.9896488
20
326.4834675
40
5.0129644
50
269.7957372
51
275.3991435
0
ARC
8
right_labelLayer
10
130.1772692
20
324.5573872
40
3.0777807
50
275.2957035
51
283.3516225
0
ARC
8
right_labelLayer
10
130.4829446
20
323.2983751
40
1.7822223
50
283.1370582
51
295.8573305
0
ARC
8
right_labelLayer
10
130.7094409
20
322.8039071
40
1.2385334
50
296.4047512
51
301.80088
0
ARC
8
right_labelLayer
10
130.7982384
20
322.6815118
40
1.0877733
50
301.223099
51
318.6237853
0
ARC
8
right_labelLayer
10
130.99853
20
322.4964936
40
0.8152057
50
319.0765666
51
1.1407005
0
ARC
8
right_labelLayer
10
130.8047013
20
322.5207159
40
1.0089046
50
359.5460434
51
10.990545
0
ARC
8
right_labelLayer
10
131.1944033
20
322.5999826
40
0.6112484
50
10.6608493
51
30.9362816
0
ARC
8
right_labelLayer
10
131.3179638
20
322.6685554
40
0.4700372
50
31.5095523
51
58.0778214
0
ARC
8
right_labelLayer
10
131.2021539
20
322.4611942
40
0.7073662
50
58.9972112
51
73.8586142
0
ARC
8
right_labelLayer
10
130.9680734
20
321.6948807
40
1.508593
50
73.4100324
51
81.5906588
0
ARC
8
right_labelLayer
10
130.7697435
20
320.4113958
40
2.807296
50
81.4172755
51
86.5756559
0
ARC
8
right_labelLayer
10
130.6482052
20
318.4776165
40
4.7448858
50
86.5054297
51
90.1398813
0
ARC
8
right_labelLayer
10
129.7320116
20
321.5083541
40
1.7141672
50
89.6435489
51
100.0208672
0
ARC
8
right_labelLayer
10
129.6242737
20
322.0944484
40
1.1182744
50
99.8102913
51
116.8229248
0
ARC
8
right_labelLayer
10
129.5193279
20
322.3157671
40
0.8734352
50
117.2304595
51
130.5022743
0
ARC
8
right_labelLayer
10
129.465441
20
322.3850256
40
0.7857842
50
130.7944719
51
169.0413499
0
ARC
8
right_labelLayer
10
129.8622466
20
322.291576
40
1.1932303
50
168.2580365
51
180.3819851
0
ARC
8
right_labelLayer
10
130.5288919
20
326.4457297
40
1.4555946
50
179.561759
51
191.6528957
0
ARC
8
right_labelLayer
10
130.022798
20
326.3363866
40
0.937859
50
191.3555301
51
213.3660479
0
ARC
8
right_labelLayer
10
129.9012556
20
326.2662056
40
0.797794
50
213.9573527
51
227.7971928
0
ARC
8
right_labelLayer
10
130.0070004
20
326.3944564
40
0.963865
50
228.2620858
51
254.734142
0
ARC
8
right_labelLayer
10
130.1420908
20
326.857548
40
1.4462097
50
254.4016454
51
267.434886
0
ARC
8
right_labelLayer
10
130.1773356
20
327.3302094
40
1.9200264
50
267.0154484
51
270.0323003
0
ARC
8
right_labelLayer
10
130.2003715
20
327.0345907
40
1.6245556
50
269.2257078
51
284.3773083
0
ARC
8
right_labelLayer
10
130.421796
20
326.2631437
40
0.8226079
50
282.7796649
51
346.4828529
0
ARC
8
right_labelLayer
10
129.7597994
20
326.4506588
40
1.5103482
50
345.4362192
51
0.7466225
0
ARC
8
right_labelLayer
10
129.666744
20
326.4932699
40
1.6034395
50
359.1806048
51
15.0431682
0
ARC
8
right_labelLayer
10
130.3932897
20
326.705211
40
0.8469365
50
13.9535594
51
77.6673825
0
ARC
8
right_labelLayer
10
130.1848358
20
325.9582043
40
1.6218277
50
76.1094744
51
90.7028451
0
ARC
8
right_labelLayer
10
130.1536337
20
326.0152593
40
1.5646915
50
89.5859307
51
101.3334356
0
ARC
8
right_labelLayer
10
130.0418164
20
326.5485787
40
1.0198091
50
101.062081
51
121.9739144
0
ARC
8
right_labelLayer
10
129.9632251
20
326.6899555
40
0.8583033
50
122.5210149
51
134.9967328
0
ARC
8
right_labelLayer
10
129.9955856
20
326.6705633
40
0.8949444
50
135.5839567
51
163.0015918
0
ARC
8
right_labelLayer
10
130.4681806
20
326.5156627
40
1.3922131
50
162.5911679
51
175.7343314
0
ARC
8
right_labelLayer
10
131.0350023
20
326.4598234
40
1.9616646
50
175.339333
51
180.0864658
0
LINE
8
right_labelLayer
10
137.7208008
20
323.1101834
11
136.9750977
21
323.1101834
0
LINE
8
right_labelLayer
10
136.9750977
20
323.1101834
11
136.9750977
21
326.2951443
0
LINE
8
right_labelLayer
10
134.3516602
20
325.6842068
11
134.3516602
21
323.1101834
0
LINE
8
right_labelLayer
10
134.3516602
20
323.1101834
11
133.605957
21
323.1101834
0
LINE
8
right_labelLayer
10
133.605957
20
323.1101834
11
133.605957
21
330.1000271
0
LINE
8
right_labelLayer
10
133.605957
20
330.1000271
11
134.3516602
21
330.1000271
0
LINE
8
right_labelLayer
10
134.3516602
20
330.1000271
11
134.3516602
21
327.9842068
0
LINE
8
right_labelLayer
10
134.3157227
20
327.3508084
11
134.3606445
21
327.3508084
0
LINE
8
right_labelLayer
10
137.7208008
20
326.3220974
11
137.7208008
21
323.1101834
0
ARC
8
right_labelLayer
10
134.8672034
20
326.3072319
40
2.1079289
50
359.6714452
51
8.6876987
0
ARC
8
right_labelLayer
10
135.6484768
20
326.4311363
40
1.3169116
50
8.4931063
51
22.6580275
0
ARC
8
right_labelLayer
10
136.045402
20
326.5960868
40
0.8870772
50
22.7024551
51
42.3420005
0
ARC
8
right_labelLayer
10
136.0900174
20
326.6161564
40
0.8407203
50
43.379088
51
71.5385852
0
ARC
8
right_labelLayer
10
135.9231746
20
326.1499577
40
1.3358026
50
71.0827511
51
84.3691432
0
ARC
8
right_labelLayer
10
135.8482803
20
325.5131768
40
1.9768961
50
84.0198209
51
90.1511131
0
ARC
8
right_labelLayer
10
135.8269944
20
325.2335277
40
2.2565957
50
89.5919224
51
100.3595403
0
ARC
8
right_labelLayer
10
135.6672074
20
326.0732261
40
1.4018655
50
100.1067953
51
118.0847363
0
ARC
8
right_labelLayer
10
135.5046888
20
326.3921272
40
1.0440261
50
118.455115
51
139.6706461
0
ARC
8
right_labelLayer
10
135.6678463
20
326.2806058
40
1.2407524
50
140.6208289
51
160.5049205
0
ARC
8
right_labelLayer
10
136.5278593
20
325.96223
40
2.1577512
50
160.156676
51
171.5312822
0
ARC
8
right_labelLayer
10
137.9193846
20
325.7417579
40
3.5665967
50
171.3202094
51
178.3406665
0
ARC
8
right_labelLayer
10
139.1641925
20
325.6861413
40
4.8125326
50
178.1079404
51
180.0230311
0
ARC
8
right_labelLayer
10
127.6433389
20
327.9762155
40
6.708326
50
357.8674326
51
0.0682536
0
ARC
8
right_labelLayer
10
129.9225239
20
327.8892603
40
4.4274843
50
354.982784
51
357.8943829
0
ARC
8
right_labelLayer
10
131.4275153
20
327.7581981
40
2.9167976
50
351.9712366
51
354.9619796
0
ARC
8
right_labelLayer
10
135.6237401
20
326.5606979
40
1.4898607
50
119.8316038
51
147.9725788
0
ARC
8
right_labelLayer
10
135.8041605
20
326.2835366
40
1.8201417
50
116.6658815
51
120.4183301
0
ARC
8
right_labelLayer
10
135.8378312
20
326.1950776
40
1.9143271
50
96.6652643
51
116.3782588
0
ARC
8
right_labelLayer
10
135.9104118
20
325.694287
40
2.4201974
50
89.8927669
51
96.9958515
0
ARC
8
right_labelLayer
10
135.933619
20
325.089119
40
3.0254189
50
80.6862894
51
90.3537207
0
ARC
8
right_labelLayer
10
136.1220043
20
326.1971627
40
1.9015056
50
65.6022336
51
80.8844397
0
ARC
8
right_labelLayer
10
136.3482163
20
326.7066372
40
1.3440936
50
46.7400713
51
65.4130968
0
ARC
8
right_labelLayer
10
136.3635906
20
326.7551804
40
1.2983933
50
19.2204161
51
45.7660849
0
ARC
8
right_labelLayer
10
135.6149168
20
326.4776414
40
2.0967602
50
6.4734194
51
19.6467834
0
ARC
8
right_labelLayer
10
134.496245
20
326.3336632
40
3.2245765
50
359.7944932
51
6.774394
0
LINE
8
right_labelLayer
10
141.5166992
20
323.7256131
11
141.5166992
21
323.1551052
0
LINE
8
right_labelLayer
10
139.306543
20
324.5252224
11
139.306543
21
327.4541287
0
LINE
8
right_labelLayer
10
139.306543
20
327.4541287
11
138.6012695
21
327.4541287
0
LINE
8
right_labelLayer
10
138.6012695
20
327.4541287
11
138.6012695
21
327.8135037
0
LINE
8
right_labelLayer
10
138.6012695
20
327.8135037
11
139.306543
21
328.1234646
0
LINE
8
right_labelLayer
10
139.306543
20
328.1234646
11
139.6209961
21
329.1746365
0
LINE
8
right_labelLayer
10
139.6209961
20
329.1746365
11
140.0522461
21
329.1746365
0
LINE
8
right_labelLayer
10
140.0522461
20
329.1746365
11
140.0522461
21
328.0336209
0
LINE
8
right_labelLayer
10
140.0522461
20
328.0336209
11
141.4807617
21
328.0336209
0
LINE
8
right_labelLayer
10
141.4807617
20
328.0336209
11
141.4807617
21
327.4541287
0
LINE
8
right_labelLayer
10
141.4807617
20
327.4541287
11
140.0522461
21
327.4541287
0
LINE
8
right_labelLayer
10
140.0522461
20
327.4541287
11
140.0522461
21
324.5566677
0
ARC
8
right_labelLayer
10
140.8479864
20
326.084735
40
2.448971
50
269.8803227
51
278.3028695
0
ARC
8
right_labelLayer
10
140.8711936
20
325.8949904
40
2.2578683
50
278.4154455
51
279.0078376
0
ARC
8
right_labelLayer
10
140.5964672
20
327.6499709
40
4.0342198
50
278.9590044
51
280.5103465
0
ARC
8
right_labelLayer
10
140.8583692
20
326.2446698
40
2.6047227
50
280.4847734
51
282.6267469
0
ARC
8
right_labelLayer
10
141.0880973
20
325.224061
40
1.5585796
50
282.5874781
51
285.579605
0
ARC
8
right_labelLayer
10
141.2015452
20
324.8064778
40
1.1258732
50
285.7258428
51
286.2554066
0
ARC
8
right_labelLayer
10
141.2031844
20
323.8182053
40
0.7334802
50
287.9888897
51
295.3048619
0
ARC
8
right_labelLayer
10
141.026273
20
324.3534533
40
1.2972027
50
283.3069143
51
288.1196895
0
ARC
8
right_labelLayer
10
140.8393777
20
325.1330481
40
2.0988849
50
280.0071019
51
283.3735263
0
ARC
8
right_labelLayer
10
140.7141763
20
325.8126192
40
2.7898782
50
279.1863719
51
280.1140461
0
ARC
8
right_labelLayer
10
140.6375959
20
326.2481584
40
3.2320628
50
275.5259854
51
279.2939044
0
ARC
8
right_labelLayer
10
140.7240818
20
325.3448278
40
2.3246023
50
270.8933311
51
275.5482723
0
ARC
8
right_labelLayer
10
140.7349688
20
324.9315683
40
1.9112285
50
270.0026926
51
270.7601514
0
ARC
8
right_labelLayer
10
140.7049672
20
324.967777
40
1.9476699
50
253.7848146
51
270.8852518
0
ARC
8
right_labelLayer
10
140.4742205
20
324.1808402
40
1.127604
50
190.3817633
51
253.8772374
0
ARC
8
right_labelLayer
10
141.6503324
20
324.4988403
40
2.3439379
50
179.3550947
51
192.8477642
0
ARC
8
right_labelLayer
10
141.5538303
20
324.5472773
40
1.5016136
50
179.6416957
51
189.7505298
0
ARC
8
right_labelLayer
10
141.0237226
20
324.4527277
40
0.9631567
50
189.5479463
51
205.7873502
0
ARC
8
right_labelLayer
10
140.8058692
20
324.3522673
40
0.7233076
50
206.1293297
51
221.4084661
0
ARC
8
right_labelLayer
10
140.7814499
20
324.3337382
40
0.6927409
50
221.594928
51
262.3505058
0
ARC
8
right_labelLayer
10
140.839543
20
324.6324742
40
0.9967104
50
261.3266103
51
270.191313
0
LINE
8
bottom_outsideCutPath
10
161
20
46
11
161
21
40.625
0
LINE
8
bottom_outsideCutPath
10
161
20
40.625
11
158
21
40.625
0
LINE
8
bottom_outsideCutPath
10
158
20
40.625
11
158
21
30.875
0
LINE
8
bottom_outsideCutPath
10
158
20
30.875
11
161
21
30.875
0
LINE
8
bottom_outsideCutPath
10
161
20
30.875
11
161
21
21.125
0
LINE
8
bottom_outsideCutPath
10
161
20
21.125
11
158
21
21.125
0
LINE
8
bottom_outsideCutPath
10
158
20
21.125
11
158
21
11.375
0
LINE
8
bottom_outsideCutPath
10
158
20
11.375
11
161
21
11.375
0
LINE
8
bottom_outsideCutPath
10
161
20
11.375
11
161
21
6
0
LINE
8
bottom_outsideCutPath
10
161
20
6
11
167.125
21
6
0
LINE
8
bottom_outsideCutPath
10
167.125
20
6
11
167.125
21
3
0
LINE
8
bottom_outsideCutPath
10
167.125
20
3
11
176.875
21
3
0
LINE
8
bottom_outsideCutPath
10
176.875
20
3
11
176.875
21
6
0
LINE
8
bottom_outsideCutPath
10
176.875
20
6
11
186.625
21
6
0
LINE
8
bottom_outsideCutPath
10
186.625
20
6
11
186.625
21
3
0
LINE
8
bottom_outsideCutPath
10
186.625
20
3
11
196.375
21
3
0
LINE
8
bottom_outsideCutPath
10
196.375
20
3
11
196.375
21
6
0
LINE
8
bottom_outsideCutPath
10
196.375
20
6
11
206.125
21
6
0
LINE
8
bottom_outsideCutPath
10
206.125
20
6
11
206.125
21
3
0
LINE
8
bottom_outsideCutPath
10
206.125
20
3
11
215.875
21
3
0
LINE
8
bottom_outsideCutPath
10
215.875
20
3
11
215.875
21
6
0
LINE
8
bottom_outsideCutPath
10
215.875
20
6
11
225.625
21
6
0
LINE
8
bottom_outsideCutPath
10
225.625
20
6
11
225.625
21
3
0
LINE
8
bottom_outsideCutPath
10
225.625
20
3
11
235.375
21
3
0
LINE
8
bottom_outsideCutPath
10
235.375
20
3
11
235.375
21
6
0
LINE
8
bottom_outsideCutPath
10
235.375
20
6
11
245.125
21
6
0
LINE
8
bottom_outsideCutPath
10
245.125
20
6
11
245.125
21
3
0
LINE
8
bottom_outsideCutPath
10
245.125
20
3
11
254.875
21
3
0
LINE
8
bottom_outsideCutPath
10
254.875
20
3
11
254.875
21
6
0
LINE
8
bottom_outsideCutPath
10
254.875
20
6
11
261
21
6
0
LINE
8
bottom_outsideCutPath
10
261
20
6
11
261
21
11.375
0
LINE
8
bottom_outsideCutPath
10
261
20
11.375
11
264
21
11.375
0
LINE
8
bottom_outsideCutPath
10
264
20
11.375
11
264
21
21.125
0
LINE
8
bottom_outsideCutPath
10
264
20
21.125
11
261
21
21.125
0
LINE
8
bottom_outsideCutPath
10
261
20
21.125
11
261
21
30.875
0
LINE
8
bottom_outsideCutPath
10
261
20
30.875
11
264
21
30.875
0
LINE
8
bottom_outsideCutPath
10
264
20
30.875
11
264
21
40.625
0
LINE
8
bottom_outsideCutPath
10
264
20
40.625
11
261
21
40.625
0
LINE
8
bottom_outsideCutPath
10
261
20
40.625
11
261
21
46
0
LINE
8
bottom_outsideCutPath
10
261
20
46
11
254.875
21
46
0
LINE
8
bottom_outsideCutPath
10
254.875
20
46
11
254.875
21
49
0
LINE
8
bottom_outsideCutPath
10
254.875
20
49
11
245.125
21
49
0
LINE
8
bottom_outsideCutPath
10
245.125
20
49
11
245.125
21
46
0
LINE
8
bottom_outsideCutPath
10
245.125
20
46
11
235.375
21
46
0
LINE
8
bottom_outsideCutPath
10
235.375
20
46
11
235.375
21
49
0
LINE
8
bottom_outsideCutPath
10
235.375
20
49
11
225.625
21
49
0
LINE
8
bottom_outsideCutPath
10
225.625
20
49
11
225.625
21
46
0
LINE
8
bottom_outsideCutPath
10
225.625
20
46
11
215.875
21
46
0
LINE
8
bottom_outsideCutPath
10
215.875
20
46
11
215.875
21
49
0
LINE
8
bottom_outsideCutPath
10
215.875
20
49
11
206.125
21
49
0
LINE
8
bottom_outsideCutPath
10
206.125
20
49
11
206.125
21
46
0
LINE
8
bottom_outsideCutPath
10
206.125
20
46
11
196.375
21
46
0
LINE
8
bottom_outsideCutPath
10
196.375
20
46
11
196.375
21
49
0
LINE
8
bottom_outsideCutPath
10
196.375
20
49
11
186.625
21
49
0
LINE
8
bottom_outsideCutPath
10
186.625
20
49
11
186.625
21
46
0
LINE
8
bottom_outsideCutPath
10
186.625
20
46
11
176.875
21
46
0
LINE
8
bottom_outsideCutPath
10
176.875
20
46
11
176.875
21
49
0
LINE
8
bottom_outsideCutPath
10
176.875
20
49
11
167.125
21
49
0
LINE
8
bottom_outsideCutPath
10
167.125
20
49
11
167.125
21
46
0
LINE
8
bottom_outsideCutPath
10
167.125
20
46
11
161
21
46
0
LINE
8
bottom_labelLayer
10
196.6115016
20
23.1835147
11
196.5575954
21
23.1835147
0
LINE
8
bottom_labelLayer
10
196.5575954
20
23.1835147
11
196.4003688
21
22.5501162
0
LINE
8
bottom_labelLayer
10
196.4003688
20
22.5501162
11
195.8657985
21
22.5501162
0
LINE
8
bottom_labelLayer
10
195.8657985
20
22.5501162
11
195.8657985
21
29.53996
0
LINE
8
bottom_labelLayer
10
195.8657985
20
29.53996
11
196.6115016
21
29.53996
0
LINE
8
bottom_labelLayer
10
196.6115016
20
29.53996
11
196.6115016
21
27.8419131
0
LINE
8
bottom_labelLayer
10
196.5755641
20
26.8176944
11
196.6115016
21
26.8176944
0
ARC
8
bottom_labelLayer
10
198.1791849
20
25.2753967
40
2.2791262
50
74.2393396
51
90.5623967
0
ARC
8
bottom_labelLayer
10
198.329888
20
25.8282579
40
1.7061236
50
38.5631356
51
74.067043
0
ARC
8
bottom_labelLayer
10
197.942059
20
25.5266994
40
2.1973681
50
16.4709174
51
38.4075125
0
ARC
8
bottom_labelLayer
10
196.8247871
20
25.1763549
40
3.3681789
50
5.1338404
51
16.7973431
0
ARC
8
bottom_labelLayer
10
195.4143178
20
25.026523
40
4.7864526
50
359.8779519
51
5.4093813
0
ARC
8
bottom_labelLayer
10
195.8285964
20
24.9905331
40
4.3722392
50
350.6562857
51
0.3380187
0
ARC
8
bottom_labelLayer
10
197.3528363
20
24.7312775
40
2.8261432
50
335.8305824
51
350.8254737
0
ARC
8
bottom_labelLayer
10
198.0233165
20
24.441888
40
2.095978
50
321.3161565
51
335.5436198
0
ARC
8
bottom_labelLayer
10
198.2796471
20
24.2330178
40
1.7653382
50
274.0640073
51
321.4081059
0
ARC
8
bottom_labelLayer
10
198.1602299
20
24.9894691
40
2.529199
50
269.9226211
51
275.5481427
0
ARC
8
bottom_labelLayer
10
198.1442382
20
24.7221132
40
2.2618756
50
255.7755333
51
270.3185631
0
ARC
8
bottom_labelLayer
10
198.0796884
20
24.43533
40
1.9680396
50
245.9801427
51
255.5455991
0
ARC
8
bottom_labelLayer
10
197.9546672
20
24.1445954
40
1.6515963
50
215.5850111
51
245.8361879
0
ARC
8
bottom_labelLayer
10
181.0641435
20
27.8287751
40
15.5473637
50
358.1123043
51
0.0484168
0
ARC
8
bottom_labelLayer
10
185.3911432
20
27.6835005
40
11.2179272
50
355.7238892
51
358.1259007
0
ARC
8
bottom_labelLayer
10
187.2767047
20
27.5541587
40
9.3279776
50
355.4716596
51
355.6525686
0
ARC
8
bottom_labelLayer
10
198.0022056
20
25.8479195
40
1.6954412
50
95.1835169
51
145.1109084
0
ARC
8
bottom_labelLayer
10
198.1512282
20
25.0075844
40
2.5468349
50
89.8743335
51
96.8145845
0
ARC
8
bottom_labelLayer
10
198.0333891
20
24.8345755
40
2.0954817
50
89.5731092
51
100.7324363
0
ARC
8
bottom_labelLayer
10
197.8782642
20
25.6183147
40
1.2965803
50
100.4469155
51
119.6700915
0
ARC
8
bottom_labelLayer
10
197.7344187
20
25.8872508
40
0.9917335
50
120.1403033
51
142.4248909
0
ARC
8
bottom_labelLayer
10
197.9723997
20
25.729819
40
1.2765107
50
143.3382323
51
161.2560223
0
ARC
8
bottom_labelLayer
10
198.9676048
20
25.3764867
40
2.3325208
50
160.8926253
51
171.2334128
0
ARC
8
bottom_labelLayer
10
200.6290055
20
25.1084659
40
4.0153778
50
171.0668021
51
177.8456631
0
ARC
8
bottom_labelLayer
10
202.3568849
20
25.0205923
40
5.7453847
50
177.6177107
51
180.0425338
0
ARC
8
bottom_labelLayer
10
201.5420356
20
24.9970761
40
4.9305716
50
179.7762915
51
185.7074973
0
ARC
8
bottom_labelLayer
10
199.5980721
20
24.7967827
40
2.9763319
50
185.5925073
51
194.2050588
0
ARC
8
bottom_labelLayer
10
198.3527953
20
24.4735908
40
1.6898398
50
193.943043
51
208.0218638
0
ARC
8
bottom_labelLayer
10
197.8489622
20
24.217277
40
1.124702
50
208.5536824
51
217.560547
0
ARC
8
bottom_labelLayer
10
197.8079122
20
24.2002029
40
1.081814
50
218.1690582
51
253.8046977
0
ARC
8
bottom_labelLayer
10
198.0085656
20
24.8188336
40
1.7319772
50
253.1381966
51
266.848341
0
ARC
8
bottom_labelLayer
10
198.064834
20
25.4823645
40
2.3976789
50
266.3775082
51
270.051053
0
ARC
8
bottom_labelLayer
10
198.0828767
20
24.5711581
40
1.4865567
50
269.386919
51
285.8630406
0
ARC
8
bottom_labelLayer
10
198.193319
20
24.172003
40
1.0724179
50
286.0162766
51
326.8497239
0
ARC
8
bottom_labelLayer
10
197.6602663
20
24.52513
40
1.7118182
50
326.7105211
51
343.6661432
0
ARC
8
bottom_labelLayer
10
196.6624183
20
24.830037
40
2.7551685
50
343.4171721
51
353.6368779
0
ARC
8
bottom_labelLayer
10
195.1553437
20
25.0088628
40
4.2727912
50
353.4934485
51
0.220569
0
ARC
8
bottom_labelLayer
10
195.0224568
20
25.0431447
40
4.4056825
50
359.7680803
51
6.3095184
0
ARC
8
bottom_labelLayer
10
196.6819946
20
25.233586
40
2.7352763
50
6.1648686
51
16.0396632
0
ARC
8
bottom_labelLayer
10
197.7510359
20
25.5486339
40
1.6208205
50
15.7779237
51
32.0151495
0
ARC
8
bottom_labelLayer
10
198.0843724
20
25.7395227
40
1.2370726
50
32.7034176
51
35.5241812
0
ARC
8
bottom_labelLayer
10
198.2063226
20
25.8261979
40
1.0874586
50
35.5408465
51
79.8011224
0
ARC
8
bottom_labelLayer
10
198.0602872
20
25.2053719
40
1.7246642
50
78.6781307
51
90.3749242
0
ARC
8
bottom_labelLayer
10
201.9013203
20
24.9903607
40
3.8518704
50
349.1762013
51
0.3862489
0
ARC
8
bottom_labelLayer
10
203.1981574
20
24.7318347
40
2.5295779
50
330.250718
51
349.4116408
0
ARC
8
bottom_labelLayer
10
203.5972553
20
24.5244011
40
2.0802267
50
318.143975
51
329.7565973
0
ARC
8
bottom_labelLayer
10
203.6692907
20
24.4666714
40
1.9880588
50
278.8959098
51
317.9979156
0
ARC
8
bottom_labelLayer
10
203.4836931
20
25.3558805
40
2.8956355
50
269.7502653
51
279.8033341
0
ARC
8
bottom_labelLayer
10
203.4535923
20
24.8548752
40
2.3946665
50
253.5437104
51
270.4182301
0
ARC
8
bottom_labelLayer
10
203.3738779
20
24.546518
40
2.0763876
50
238.8115491
51
253.2428349
0
ARC
8
bottom_labelLayer
10
203.3481512
20
24.494783
40
2.018813
50
207.7947063
51
238.6758091
0
ARC
8
bottom_labelLayer
10
203.7174069
20
24.7209258
40
2.4510752
50
205.6561215
51
208.4461008
0
ARC
8
bottom_labelLayer
10
204.0016454
20
24.8393475
40
2.7586114
50
188.9102539
51
205.3171547
0
ARC
8
bottom_labelLayer
10
204.9599056
20
25.0016444
40
3.7304641
50
179.7744891
51
189.0932728
0
ARC
8
bottom_labelLayer
10
205.101247
20
25.0425521
40
3.8718654
50
169.2442954
51
180.3880786
0
ARC
8
bottom_labelLayer
10
203.7863951
20
25.3024501
40
2.53163
50
150.7111566
51
169.4695294
0
ARC
8
bottom_labelLayer
10
203.3666505
20
25.5180042
40
2.0601649
50
138.1759532
51
150.2287455
0
ARC
8
bottom_labelLayer
10
203.2968293
20
25.5715829
40
1.9724168
50
99.175947
51
137.9832629
0
ARC
8
bottom_labelLayer
10
203.4890034
20
24.6671771
40
2.8962519
50
89.7326584
51
100.0759462
0
ARC
8
bottom_labelLayer
10
203.5274118
20
25.0577751
40
2.5057461
50
73.5222515
51
90.5692408
0
ARC
8
bottom_labelLayer
10
203.6743588
20
25.5916687
40
1.9521274
50
41.1445701
51
73.2133886
0
ARC
8
bottom_labelLayer
10
203.3938478
20
25.3505731
40
2.3220001
50
13.5014429
51
41.0703485
0
ARC
8
bottom_labelLayer
10
202.3100987
20
25.0669712
40
3.4420863
50
1.1277064
51
13.8799949
0
ARC
8
bottom_labelLayer
10
201.3766404
20
25.0169457
40
4.3764628
50
359.9919018
51
1.5419922
0
ARC
8
bottom_labelLayer
10
205.7783104
20
24.996948
40
3.7762335
50
179.7059631
51
187.9160623
0
ARC
8
bottom_labelLayer
10
204.3933172
20
24.797998
40
2.3770465
50
187.7639726
51
200.0976463
0
ARC
8
bottom_labelLayer
10
203.63031
20
24.5184337
40
1.5644359
50
200.0846162
51
216.9131677
0
ARC
8
bottom_labelLayer
10
203.3516908
20
24.3194865
40
1.2222065
50
217.300962
51
261.7099089
0
ARC
8
bottom_labelLayer
10
203.4810358
20
24.9367096
40
1.8520405
50
260.5033217
51
270.2476443
0
ARC
8
bottom_labelLayer
10
203.5057233
20
24.8166829
40
1.7320767
50
269.4481424
51
284.7255503
0
ARC
8
bottom_labelLayer
10
203.642841
20
24.3081558
40
1.205403
50
284.5662303
51
322.6333785
0
ARC
8
bottom_labelLayer
10
203.322254
20
24.5397662
40
1.6007972
50
323.0089021
51
342.6390595
0
ARC
8
bottom_labelLayer
10
202.4053047
20
24.8394529
40
2.5654275
50
342.3615511
51
353.7537777
0
ARC
8
bottom_labelLayer
10
201.0524819
20
25.0025203
40
3.9279895
50
353.5362848
51
0.2013946
0
ARC
8
bottom_labelLayer
10
201.2597319
20
25.0353164
40
3.7207635
50
359.7075854
51
7.8972459
0
ARC
8
bottom_labelLayer
10
202.6223916
20
25.2306646
40
2.3441953
50
7.7439897
51
20.0690124
0
ARC
8
bottom_labelLayer
10
203.3817148
20
25.5093084
40
1.5353615
50
20.0256716
51
37.4350907
0
ARC
8
bottom_labelLayer
10
203.6336442
20
25.6880747
40
1.2267046
50
37.9577659
51
80.4006149
0
ARC
8
bottom_labelLayer
10
203.4904787
20
25.0492843
40
1.8807435
50
79.3453452
51
90.317512
0
ARC
8
bottom_labelLayer
10
203.4639684
20
25.1553866
40
1.7746854
50
89.4805929
51
103.8805131
0
ARC
8
bottom_labelLayer
10
203.3148489
20
25.7232321
40
1.1876793
50
103.4685233
51
142.3118963
0
ARC
8
bottom_labelLayer
10
203.6047476
20
25.5193544
40
1.541816
50
142.9025678
51
162.3749784
0
ARC
8
bottom_labelLayer
10
204.518209
20
25.2149433
40
2.5046064
50
162.0652764
51
173.1675218
0
ARC
8
bottom_labelLayer
10
205.9425719
20
25.0332721
40
3.9404817
50
173.0086092
51
180.2463845
0
LINE
8
bottom_labelLayer
10
209.3243923
20
23.1655459
11
209.3243923
21
22.5950381
0
LINE
8
bottom_labelLayer
10
207.114236
20
23.9651553
11
207.114236
21
26.8940615
0
LINE
8
bottom_labelLayer
10
207.114236
20
26.8940615
11
206.4089626
21
26.8940615
0
LINE
8
bottom_labelLayer
10
206.4089626
20
26.8940615
11
206.4089626
21
27.2534365
0
LINE
8
bottom_labelLayer
10
206.4089626
20
27.2534365
11
207.114236
21
27.5633975
0
LINE
8
bottom_labelLayer
10
207.114236
20
27.5633975
11
207.4286891
21
28.6145694
0
LINE
8
bottom_labelLayer
10
207.4286891
20
28.6145694
11
207.8599391
21
28.6145694
0
LINE
8
bottom_labelLayer
10
207.8599391
20
28.6145694
11
207.8599391
21
27.4735537
0
LINE
8
bottom_labelLayer
10
207.8599391
20
27.4735537
11
209.2884548
21
27.4735537
0
LINE
8
bottom_labelLayer
10
209.2884548
20
27.4735537
11
209.2884548
21
26.8940615
0
LINE
8
bottom_labelLayer
10
209.2884548
20
26.8940615
11
207.8599391
21
26.8940615
0
LINE
8
bottom_labelLayer
10
207.8599391
20
26.8940615
11
207.8599391
21
23.9966006
0
ARC
8
bottom_labelLayer
10
208.6556795
20
25.5246678
40
2.448971
50
269.8803227
51
278.3028695
0
ARC
8
bottom_labelLayer
10
208.6788866
20
25.3349232
40
2.2578683
50
278.4154455
51
279.0078376
0
ARC
8
bottom_labelLayer
10
208.4041602
20
27.0899038
40
4.0342198
50
278.9590044
51
280.5103465
0
ARC
8
bottom_labelLayer
10
208.6660623
20
25.6846027
40
2.6047227
50
280.4847734
51
282.6267469
0
ARC
8
bottom_labelLayer
10
208.8957904
20
24.6639939
40
1.5585796
50
282.5874781
51
285.579605
0
ARC
8
bottom_labelLayer
10
209.0092383
20
24.2464107
40
1.1258732
50
285.7258428
51
286.2554066
0
ARC
8
bottom_labelLayer
10
209.0108775
20
23.2581382
40
0.7334802
50
287.9888897
51
295.3048619
0
ARC
8
bottom_labelLayer
10
208.833966
20
23.7933862
40
1.2972027
50
283.3069143
51
288.1196895
0
ARC
8
bottom_labelLayer
10
208.6470708
20
24.572981
40
2.0988849
50
280.0071019
51
283.3735263
0
ARC
8
bottom_labelLayer
10
208.5218694
20
25.2525521
40
2.7898782
50
279.1863719
51
280.1140461
0
ARC
8
bottom_labelLayer
10
208.445289
20
25.6880913
40
3.2320628
50
275.5259854
51
279.2939044
0
ARC
8
bottom_labelLayer
10
208.5317749
20
24.7847607
40
2.3246023
50
270.8933311
51
275.5482723
0
ARC
8
bottom_labelLayer
10
208.5426618
20
24.3715012
40
1.9112285
50
270.0026926
51
270.7601514
0
ARC
8
bottom_labelLayer
10
208.5126603
20
24.4077099
40
1.9476699
50
253.7848146
51
270.8852518
0
ARC
8
bottom_labelLayer
10
208.2819135
20
23.6207731
40
1.127604
50
190.3817633
51
253.8772374
0
ARC
8
bottom_labelLayer
10
209.4580254
20
23.9387731
40
2.3439379
50
179.3550947
51
192.8477642
0
ARC
8
bottom_labelLayer
10
209.3615234
20
23.9872102
40
1.5016136
50
179.6416957
51
189.7505298
0
ARC
8
bottom_labelLayer
10
208.8314156
20
23.8926606
40
0.9631567
50
189.5479463
51
205.7873502
0
ARC
8
bottom_labelLayer
10
208.6135623
20
23.7922001
40
0.7233076
50
206.1293297
51
221.4084661
0
ARC
8
bottom_labelLayer
10
208.589143
20
23.7736711
40
0.6927409
50
221.594928
51
262.3505058
0
ARC
8
bottom_labelLayer
10
208.6472361
20
24.072407
40
0.9967104
50
261.3266103
51
270.191313
0
LINE
8
bottom_labelLayer
10
212.5722438
20
23.1655459
11
212.5722438
21
22.5950381
0
LINE
8
bottom_labelLayer
10
210.3620876
20
23.9651553
11
210.3620876
21
26.8940615
0
LINE
8
bottom_labelLayer
10
210.3620876
20
26.8940615
11
209.6568141
21
26.8940615
0
LINE
8
bottom_labelLayer
10
209.6568141
20
26.8940615
11
209.6568141
21
27.2534365
0
LINE
8
bottom_labelLayer
10
209.6568141
20
27.2534365
11
210.3620876
21
27.5633975
0
LINE
8
bottom_labelLayer
10
210.3620876
20
27.5633975
11
210.6765407
21
28.6145694
0
LINE
8
bottom_labelLayer
10
210.6765407
20
28.6145694
11
211.1077907
21
28.6145694
0
LINE
8
bottom_labelLayer
10
211.1077907
20
28.6145694
11
211.1077907
21
27.4735537
0
LINE
8
bottom_labelLayer
10
211.1077907
20
27.4735537
11
212.5363063
21
27.4735537
0
LINE
8
bottom_labelLayer
10
212.5363063
20
27.4735537
11
212.5363063
21
26.8940615
0
LINE
8
bottom_labelLayer
10
212.5363063
20
26.8940615
11
211.1077907
21
26.8940615
0
LINE
8
bottom_labelLayer
10
211.1077907
20
26.8940615
11
211.1077907
21
23.9966006
0
ARC
8
bottom_labelLayer
10
211.903531
20
25.5246678
40
2.448971
50
269.8803227
51
278.3028695
0
ARC
8
bottom_labelLayer
10
211.9267382
20
25.3349232
40
2.2578683
50
278.4154455
51
279.0078376
0
ARC
8
bottom_labelLayer
10
211.6520118
20
27.0899038
40
4.0342198
50
278.9590044
51
280.5103465
0
ARC
8
bottom_labelLayer
10
211.9139138
20
25.6846027
40
2.6047227
50
280.4847734
51
282.6267469
0
ARC
8
bottom_labelLayer
10
212.1436419
20
24.6639939
40
1.5585796
50
282.5874781
51
285.579605
0
ARC
8
bottom_labelLayer
10
212.2570898
20
24.2464107
40
1.1258732
50
285.7258428
51
286.2554066
0
ARC
8
bottom_labelLayer
10
212.258729
20
23.2581382
40
0.7334802
50
287.9888897
51
295.3048619
0
ARC
8
bottom_labelLayer
10
212.0818176
20
23.7933862
40
1.2972027
50
283.3069143
51
288.1196895
0
ARC
8
bottom_labelLayer
10
211.8949223
20
24.572981
40
2.0988849
50
280.0071019
51
283.3735263
0
ARC
8
bottom_labelLayer
10
211.7697209
20
25.2525521
40
2.7898782
50
279.1863719
51
280.1140461
0
ARC
8
bottom_labelLayer
10
211.6931406
20
25.6880913
40
3.2320628
50
275.5259854
51
279.2939044
0
ARC
8
bottom_labelLayer
10
211.7796265
20
24.7847607
40
2.3246023
50
270.8933311
51
275.5482723
0
ARC
8
bottom_labelLayer
10
211.7905134
20
24.3715012
40
1.9112285
50
270.0026926
51
270.7601514
0
ARC
8
bottom_labelLayer
10
211.7605118
20
24.4077099
40
1.9476699
50
253.7848146
51
270.8852518
0
ARC
8
bottom_labelLayer
10
211.5297651
20
23.6207731
40
1.127604
50
190.3817633
51
253.8772374
0
ARC
8
bottom_labelLayer
10
212.705877
20
23.9387731
40
2.3439379
50
179.3550947
51
192.8477642
0
ARC
8
bottom_labelLayer
10
212.6093749
20
23.9872102
40
1.5016136
50
179.6416957
51
189.7505298
0
ARC
8
bottom_labelLayer
10
212.0792672
20
23.8926606
40
0.9631567
50
189.5479463
51
205.7873502
0
ARC
8
bottom_labelLayer
10
211.8614138
20
23.7922001
40
0.7233076
50
206.1293297
51
221.4084661
0
ARC
8
bottom_labelLayer
10
211.8369946
20
23.7736711
40
0.6927409
50
221.594928
51
262.3505058
0
ARC
8
bottom_labelLayer
10
211.8950877
20
24.072407
40
0.9967104
50
261.3266103
51
270.191313
0
ARC
8
bottom_labelLayer
10
213.9538594
20
24.9903607
40
3.8518704
50
349.1762013
51
0.3862489
0
ARC
8
bottom_labelLayer
10
215.2506964
20
24.7318347
40
2.5295779
50
330.250718
51
349.4116408
0
ARC
8
bottom_labelLayer
10
215.6497943
20
24.5244011
40
2.0802267
50
318.143975
51
329.7565973
0
ARC
8
bottom_labelLayer
10
215.7218297
20
24.4666714
40
1.9880588
50
278.8959098
51
317.9979156
0
ARC
8
bottom_labelLayer
10
215.5362322
20
25.3558805
40
2.8956355
50
269.7502653
51
279.8033341
0
ARC
8
bottom_labelLayer
10
215.5061313
20
24.8548752
40
2.3946665
50
253.5437104
51
270.4182301
0
ARC
8
bottom_labelLayer
10
215.4264169
20
24.546518
40
2.0763876
50
238.8115491
51
253.2428349
0
ARC
8
bottom_labelLayer
10
215.4006902
20
24.494783
40
2.018813
50
207.7947063
51
238.6758091
0
ARC
8
bottom_labelLayer
10
215.769946
20
24.7209258
40
2.4510752
50
205.6561215
51
208.4461008
0
ARC
8
bottom_labelLayer
10
216.0541844
20
24.8393475
40
2.7586114
50
188.9102539
51
205.3171547
0
ARC
8
bottom_labelLayer
10
217.0124447
20
25.0016444
40
3.7304641
50
179.7744891
51
189.0932728
0
ARC
8
bottom_labelLayer
10
217.153786
20
25.0425521
40
3.8718654
50
169.2442954
51
180.3880786
0
ARC
8
bottom_labelLayer
10
215.8389342
20
25.3024501
40
2.53163
50
150.7111566
51
169.4695294
0
ARC
8
bottom_labelLayer
10
215.4191896
20
25.5180042
40
2.0601649
50
138.1759532
51
150.2287455
0
ARC
8
bottom_labelLayer
10
215.3493683
20
25.5715829
40
1.9724168
50
99.175947
51
137.9832629
0
ARC
8
bottom_labelLayer
10
215.5415425
20
24.6671771
40
2.8962519
50
89.7326584
51
100.0759462
0
ARC
8
bottom_labelLayer
10
215.5799508
20
25.0577751
40
2.5057461
50
73.5222515
51
90.5692408
0
ARC
8
bottom_labelLayer
10
215.7268979
20
25.5916687
40
1.9521274
50
41.1445701
51
73.2133886
0
ARC
8
bottom_labelLayer
10
215.4463868
20
25.3505731
40
2.3220001
50
13.5014429
51
41.0703485
0
ARC
8
bottom_labelLayer
10
214.3626377
20
25.0669712
40
3.4420863
50
1.1277064
51
13.8799949
0
ARC
8
bottom_labelLayer
10
213.4291795
20
25.0169457
40
4.3764628
50
359.9919018
51
1.5419922
0
ARC
8
bottom_labelLayer
10
217.8308495
20
24.996948
40
3.7762335
50
179.7059631
51
187.9160623
0
ARC
8
bottom_labelLayer
10
216.4458563
20
24.797998
40
2.3770465
50
187.7639726
51
200.0976463
0
ARC
8
bottom_labelLayer
10
215.6828491
20
24.5184337
40
1.5644359
50
200.0846162
51
216.9131677
0
ARC
8
bottom_labelLayer
10
215.4042299
20
24.3194865
40
1.2222065
50
217.300962
51
261.7099089
0
ARC
8
bottom_labelLayer
10
215.5335749
20
24.9367096
40
1.8520405
50
260.5033217
51
270.2476443
0
ARC
8
bottom_labelLayer
10
215.5582624
20
24.8166829
40
1.7320767
50
269.4481424
51
284.7255503
0
ARC
8
bottom_labelLayer
10
215.6953801
20
24.3081558
40
1.205403
50
284.5662303
51
322.6333785
0
ARC
8
bottom_labelLayer
10
215.374793
20
24.5397662
40
1.6007972
50
323.0089021
51
342.6390595
0
ARC
8
bottom_labelLayer
10
214.4578438
20
24.8394529
40
2.5654275
50
342.3615511
51
353.7537777
0
ARC
8
bottom_labelLayer
10
213.1050209
20
25.0025203
40
3.9279895
50
353.5362848
51
0.2013946
0
ARC
8
bottom_labelLayer
10
213.312271
20
25.0353164
40
3.7207635
50
359.7075854
51
7.8972459
0
ARC
8
bottom_labelLayer
10
214.6749306
20
25.2306646
40
2.3441953
50
7.7439897
51
20.0690124
0
ARC
8
bottom_labelLayer
10
215.4342539
20
25.5093084
40
1.5353615
50
20.0256716
51
37.4350907
0
ARC
8
bottom_labelLayer
10
215.6861833
20
25.6880747
40
1.2267046
50
37.9577659
51
80.4006149
0
ARC
8
bottom_labelLayer
10
215.5430177
20
25.0492843
40
1.8807435
50
79.3453452
51
90.317512
0
ARC
8
bottom_labelLayer
10
215.5165074
20
25.1553866
40
1.7746854
50
89.4805929
51
103.8805131
0
ARC
8
bottom_labelLayer
10
215.3673879
20
25.7232321
40
1.1876793
50
103.4685233
51
142.3118963
0
ARC
8
bottom_labelLayer
10
215.6572866
20
25.5193544
40
1.541816
50
142.9025678
51
162.3749784
0
ARC
8
bottom_labelLayer
10
216.5707481
20
25.2149433
40
2.5046064
50
162.0652764
51
173.1675218
0
ARC
8
bottom_labelLayer
10
217.995111
20
25.0332721
40
3.9404817
50
173.0086092
51
180.2463845
0
LINE
8
bottom_labelLayer
10
226.1341579
20
22.5501162
11
225.3884548
21
22.5501162
0
LINE
8
bottom_labelLayer
10
225.3884548
20
22.5501162
11
225.3884548
21
25.7530459
0
LINE
8
bottom_labelLayer
10
222.9941188
20
25.299335
11
222.9941188
21
22.5501162
0
LINE
8
bottom_labelLayer
10
222.9941188
20
22.5501162
11
222.2484157
21
22.5501162
0
LINE
8
bottom_labelLayer
10
222.2484157
20
22.5501162
11
222.2484157
21
25.7530459
0
LINE
8
bottom_labelLayer
10
219.858572
20
25.133124
11
219.858572
21
22.5501162
0
LINE
8
bottom_labelLayer
10
219.858572
20
22.5501162
11
219.1128688
21
22.5501162
0
LINE
8
bottom_labelLayer
10
219.1128688
20
22.5501162
11
219.1128688
21
27.4735537
0
LINE
8
bottom_labelLayer
10
219.1128688
20
27.4735537
11
219.7193141
21
27.4735537
0
LINE
8
bottom_labelLayer
10
219.7193141
20
27.4735537
11
219.8406032
21
26.7997256
0
LINE
8
bottom_labelLayer
10
219.8406032
20
26.7997256
11
219.8765407
21
26.7997256
0
LINE
8
bottom_labelLayer
10
222.8413845
20
26.7278506
11
222.877322
21
26.7278506
0
LINE
8
bottom_labelLayer
10
226.1341579
20
25.7620303
11
226.1341579
21
22.5501162
0
ARC
8
bottom_labelLayer
10
223.18862
20
25.7647641
40
2.1998659
50
359.6947976
51
8.1471817
0
ARC
8
bottom_labelLayer
10
223.9988918
20
25.8846766
40
1.3807838
50
7.9864516
51
20.794978
0
ARC
8
bottom_labelLayer
10
224.4467909
20
26.0562504
40
0.9011504
50
20.7071386
51
40.0217501
0
ARC
8
bottom_labelLayer
10
224.5450525
20
26.120542
40
0.7846813
50
41.0407922
51
73.1792809
0
ARC
8
bottom_labelLayer
10
224.4028699
20
25.6905082
40
1.2375155
50
72.6395655
51
86.256777
0
ARC
8
bottom_labelLayer
10
224.3573246
20
25.1990603
40
1.73094
50
85.8144152
51
90.0686163
0
ARC
8
bottom_labelLayer
10
224.3405888
20
25.0112414
40
1.9188137
50
89.5621619
51
101.2961836
0
ARC
8
bottom_labelLayer
10
224.1960697
20
25.7031034
40
1.2120621
50
101.0032497
51
121.7840388
0
ARC
8
bottom_labelLayer
10
224.0862017
20
25.8992511
40
0.9875091
50
122.3597581
51
140.2883679
0
ARC
8
bottom_labelLayer
10
224.2838661
20
25.754318
40
1.2322565
50
140.976528
51
161.1699658
0
ARC
8
bottom_labelLayer
10
225.0285244
20
25.4893105
40
2.0226224
50
160.8731766
51
172.5272646
0
ARC
8
bottom_labelLayer
10
226.2728347
20
25.3174606
40
3.2787256
50
172.3776384
51
180.1829501
0
ARC
8
bottom_labelLayer
10
227.0602223
20
25.2993396
40
4.0661036
50
179.8921774
51
180.0000647
0
ARC
8
bottom_labelLayer
10
220.048581
20
25.7647641
40
2.1998659
50
359.6947976
51
8.1471817
0
ARC
8
bottom_labelLayer
10
220.8588527
20
25.8846766
40
1.3807838
50
7.9864516
51
20.794978
0
ARC
8
bottom_labelLayer
10
221.3067519
20
26.0562504
40
0.9011504
50
20.7071386
51
40.0217501
0
ARC
8
bottom_labelLayer
10
221.4070566
20
26.121954
40
0.7822132
50
41.0610511
51
72.8993768
0
ARC
8
bottom_labelLayer
10
221.2621817
20
25.6906449
40
1.2371094
50
72.3601249
51
85.9562026
0
ARC
8
bottom_labelLayer
10
221.2131363
20
25.1837495
40
1.7462512
50
85.5238317
51
90.0792669
0
ARC
8
bottom_labelLayer
10
221.1964108
20
25.0779458
40
1.8521085
50
89.5573227
51
101.48324
0
ARC
8
bottom_labelLayer
10
221.0542562
20
25.743971
40
1.1711342
50
101.1546695
51
123.065536
0
ARC
8
bottom_labelLayer
10
220.9576235
20
25.9123006
40
0.9774038
50
123.702027
51
142.3022191
0
ARC
8
bottom_labelLayer
10
221.1839699
20
25.7587431
40
1.2505139
50
143.0769322
51
161.3914184
0
ARC
8
bottom_labelLayer
10
222.0963744
20
25.4365019
40
2.2180917
50
161.0234442
51
171.4469192
0
ARC
8
bottom_labelLayer
10
223.6068369
20
25.1998934
40
3.746957
50
171.3042121
51
178.3501824
0
ARC
8
bottom_labelLayer
10
225.0501797
20
25.1354242
40
5.1916082
50
178.0975897
51
180.025385
0
ARC
8
bottom_labelLayer
10
221.1398619
20
26.0568304
40
1.4655626
50
117.1209359
51
149.5423698
0
ARC
8
bottom_labelLayer
10
221.2894355
20
25.7909821
40
1.7704064
50
93.8343151
51
117.5071978
0
ARC
8
bottom_labelLayer
10
221.3307505
20
25.4250391
40
2.1383589
50
89.9662677
51
94.2831605
0
ARC
8
bottom_labelLayer
10
221.3555015
20
25.1220827
40
2.4414278
50
77.5571997
51
90.5513225
0
ARC
8
bottom_labelLayer
10
221.5820391
20
26.0964584
40
1.4411718
50
52.7026956
51
78.0053728
0
ARC
8
bottom_labelLayer
10
221.6627498
20
26.2466237
40
1.2730903
50
22.2097943
51
51.4970399
0
ARC
8
bottom_labelLayer
10
224.2281965
20
25.9536615
40
1.5569942
50
119.404195
51
150.1828846
0
ARC
8
bottom_labelLayer
10
224.401005
20
25.6908295
40
1.8709344
50
118.2584252
51
120.0627802
0
ARC
8
bottom_labelLayer
10
224.400382
20
25.6718748
40
1.8873593
50
95.8635191
51
117.9693339
0
ARC
8
bottom_labelLayer
10
224.4642595
20
25.2099894
40
2.3534105
50
89.919736
51
96.261758
0
ARC
8
bottom_labelLayer
10
224.4847645
20
24.9713539
40
2.5921007
50
79.9360859
51
90.3803728
0
ARC
8
bottom_labelLayer
10
224.6574784
20
25.906753
40
1.6409264
50
62.9723609
51
80.1664862
0
ARC
8
bottom_labelLayer
10
224.8380347
20
26.2771852
40
1.2289244
50
44.2289578
51
62.6229397
0
ARC
8
bottom_labelLayer
10
224.7843292
20
26.2534571
40
1.2841215
50
19.5612192
51
43.3160893
0
ARC
8
bottom_labelLayer
10
224.0044311
20
25.9605268
40
2.1171369
50
7.5041786
51
19.9645375
0
ARC
8
bottom_labelLayer
10
222.7139036
20
25.7792978
40
3.4202979
50
359.7107381
51
7.690723
0
ENDSEC
0
EOF